<svg width="45" height="45" viewBox="0 0 45 45" fill="none" xmlns="http://www.w3.org/2000/svg">
<rect width="45" height="45" rx="10" fill="#EDDED1"/>
<path d="M39.8534 23.7368C40.6072 28.6114 38.3838 31.1303 34.7491 35.0466C30.8647 39.2323 31.6198 39.841 24.6069 39.9135C12.0902 40.0428 9.15889 41.0574 5.97367 30.8007C4.46132 25.9299 2.89757 22.2111 5.072 17.3393C7.34226 12.2539 11.4771 7.83529 18.1868 6.79508C26.9384 5.43826 35.4542 4.99311 38.7286 12.4255C40.1182 15.5801 39.3113 20.2309 39.8534 23.7368Z" fill="#633C27"/>
<path d="M12.1384 23.6602C12.2588 23.5779 12.3682 23.4794 12.4994 23.4192C12.6799 23.3369 12.8768 23.2931 13.0572 23.2164C13.3909 23.0739 13.6043 22.8276 13.6259 22.455C13.648 22.0606 13.6424 21.661 13.648 21.2666C13.6536 20.6972 13.6371 20.1329 13.6588 19.5634C13.741 17.4494 15.2995 15.5819 17.3725 15.1382C19.1885 14.7547 20.7305 15.2751 21.9994 16.6169C22.1142 16.743 22.2128 16.792 22.3877 16.743C22.6283 16.6771 22.8798 16.6498 23.1697 16.6004C23.0057 16.3976 22.8798 16.2117 22.7322 16.0474C21.5783 14.7715 20.1398 14.1141 18.4225 14.1085C17.9084 14.1085 17.3998 14.2454 16.8857 14.3221C16.8255 14.333 16.771 14.3603 16.7108 14.3715C16.5412 14.4044 16.4044 14.3221 16.3554 14.1687C16.3061 14.0209 16.3775 13.8675 16.5524 13.8181C16.886 13.725 17.2249 13.621 17.5694 13.5828C19.8995 13.3145 21.8298 14.0703 23.345 15.8611C23.4817 16.0201 23.6129 16.1952 23.7167 16.3759C23.8042 16.5346 23.9245 16.584 24.0941 16.5896C25.0458 16.6116 25.9646 16.8088 26.8289 17.2249C29.1205 18.3313 30.5153 20.1277 30.9252 22.6469C31.2204 24.4762 30.8157 26.1738 29.7822 27.7131C29.7 27.8392 29.7 27.9103 29.8095 28.0199C30.7339 28.9344 31.6419 29.8601 32.5715 30.7693C32.8447 31.0372 33.078 31.3223 33.156 31.7055C33.1441 31.8018 33.1269 31.9422 33.115 32.0385C33.1122 32.0445 33.1098 32.0504 33.1077 32.0561C32.8506 32.9761 31.8279 33.2556 31.1442 32.5874C30.5807 32.0343 30.0176 31.4701 29.465 30.9006C29.3828 30.8183 29.3174 30.6705 29.3282 30.5665C29.3503 30.3476 29.6234 30.2709 29.8039 30.4295C29.9351 30.5392 30.0501 30.6705 30.1704 30.791C30.63 31.2512 31.0892 31.7111 31.5488 32.1657C31.702 32.3191 31.8769 32.4066 32.1011 32.3573C32.5166 32.2641 32.6862 31.7986 32.4239 31.4589C32.391 31.4151 32.3529 31.3766 32.3144 31.3384C31.3628 30.3854 30.4111 29.4324 29.4594 28.485C29.4157 28.4413 29.3719 28.4027 29.3391 28.3754C29.0764 28.6384 28.8249 28.8959 28.557 29.1641C28.5951 29.2023 28.6445 29.2626 28.7046 29.3175C28.989 29.6023 29.0383 29.7665 28.8795 29.9143C28.7263 30.0621 28.5679 30.0128 28.2835 29.7228C28.2125 29.6517 28.1576 29.5638 28.0922 29.4818C27.9775 29.5529 27.9117 29.5967 27.8407 29.6408C26.4134 30.583 24.8437 30.9609 23.1428 30.8019C22.5083 30.7416 21.8903 30.5882 21.2996 30.3528C21.1411 30.287 21.0152 30.2653 20.8292 30.342C20.5392 30.4625 20.2111 30.5119 19.8939 30.5556C18.6635 30.742 17.4439 30.6982 16.2351 30.3914C16.1257 30.3641 15.9945 30.2982 15.9343 30.2107C15.885 30.1448 15.9071 29.997 15.9452 29.9094C15.9997 29.7834 16.1365 29.7725 16.268 29.7998C16.5632 29.8601 16.8531 29.9259 17.1487 29.9749C18.1497 30.1392 19.1503 30.1063 20.1457 29.9147C20.1786 29.9091 20.2059 29.8926 20.2661 29.8653C20.0747 29.734 19.8831 29.6352 19.7355 29.4983C19.4347 29.2079 19.101 29.1312 18.6855 29.1585C17.723 29.2188 16.7821 29.0545 15.8742 28.726C15.7759 28.6878 15.6664 28.6055 15.6227 28.518C15.5898 28.4469 15.6171 28.2935 15.6773 28.2441C15.7483 28.1782 15.8906 28.1457 15.9889 28.1674C16.3719 28.2549 16.7493 28.3975 17.1375 28.463C17.5806 28.5397 18.0343 28.5561 18.483 28.5943C18.5267 28.5999 18.576 28.5834 18.6526 28.5722C18.4994 28.3859 18.341 28.2329 18.2371 28.0465C18.0622 27.7397 17.816 27.6413 17.4768 27.6028C16.8969 27.5369 16.3446 27.3562 15.8196 27.1044C15.6885 27.0386 15.5681 27.0277 15.4258 27.0662C15.1306 27.1538 14.8298 27.2249 14.5343 27.2963C14.4797 27.3072 14.4304 27.3236 14.3755 27.3292C14.2058 27.3401 14.0803 27.2581 14.0582 27.11C14.031 26.9457 14.102 26.8197 14.2608 26.7759C14.6763 26.661 15.0865 26.5349 15.5076 26.4582C15.6608 26.4309 15.8413 26.4964 15.9997 26.5458C16.4537 26.6883 16.9021 26.847 17.3561 26.9948C17.4054 27.0112 17.46 27.0056 17.553 27.0168C17.46 26.7979 17.3561 26.6172 17.2959 26.42C17.2137 26.1244 17.0445 25.9763 16.7489 25.867C16.3771 25.7301 16.027 25.5164 15.6878 25.3028C15.4636 25.1602 15.2446 25.1056 14.9875 25.1658C14.3804 25.3084 13.7788 25.445 13.1716 25.5819C12.8764 25.6478 12.712 25.5928 12.6631 25.3956C12.6194 25.2093 12.7505 25.0779 13.0405 25.0121C13.6641 24.8695 14.2929 24.7326 14.9165 24.5904C15.2995 24.5028 15.644 24.5795 15.9665 24.7932C16.2565 24.9795 16.5573 25.149 16.858 25.3245C16.8745 25.308 16.8962 25.2972 16.9126 25.2807C16.8853 25.1 16.858 24.9137 16.8304 24.7329C16.7157 23.9771 16.7321 23.2213 16.8577 22.4711C16.8741 22.3835 16.8468 22.2848 16.8248 22.1972C16.7867 22.0603 16.7153 21.9289 16.6881 21.792C16.6059 21.4249 16.7591 21.2771 17.1529 21.3482C17.5194 20.3406 18.0773 19.4479 18.8537 18.6647C18.5967 18.5334 18.3616 18.5607 18.1263 18.6265C17.5957 18.7743 17.2403 19.2454 17.2347 19.7932C17.2347 19.9522 17.2456 20.1109 17.2291 20.2643C17.2127 20.4229 17.1197 20.5273 16.9448 20.5273C16.7699 20.5273 16.6821 20.4233 16.6496 20.2699C16.502 19.514 16.8465 18.6871 17.481 18.2819C18.0115 17.9425 18.5802 17.8984 19.1654 18.1285C19.3021 18.1831 19.3896 18.1831 19.5099 18.0903C20.0733 17.6413 20.6966 17.2907 21.3748 17.0389C21.4129 17.0225 21.4514 17.006 21.4843 16.9895C21.4951 16.9839 21.5007 16.9675 21.5224 16.9402C21.4678 16.8855 21.4185 16.8253 21.3583 16.7703C20.1387 15.6639 18.7275 15.3024 17.1634 15.812C15.5937 16.3269 14.6476 17.4441 14.3195 19.0654C14.265 19.3228 14.2485 19.5911 14.2429 19.8594C14.2321 20.6698 14.2429 21.4859 14.2373 22.2967C14.2373 23.0304 13.8599 23.5565 13.1653 23.7975C13.0121 23.8521 12.8537 23.9015 12.7005 23.9561C12.4053 24.0545 12.3504 24.0437 12.1535 23.8136C12.137 23.7642 12.137 23.7151 12.137 23.6602M30.4065 23.7313C30.4174 20.1441 27.4749 17.1864 23.8871 17.1755C20.2556 17.1647 17.3022 20.1056 17.2966 23.7257C17.2966 27.3128 20.2227 30.2541 23.8049 30.2705C27.4364 30.2814 30.3953 27.3513 30.4062 23.7313" fill="#F5E8E0"/>
<path d="M12.0947 19.4762C12.1493 19.1312 12.1878 18.7862 12.2644 18.4521C12.6526 16.7433 13.6043 15.4289 15.0757 14.4815C15.1194 14.4541 15.1687 14.4268 15.218 14.3992C15.3656 14.3333 15.4915 14.3771 15.5734 14.5032C15.6556 14.6293 15.6444 14.7662 15.5241 14.8755C15.4639 14.9301 15.3929 14.9686 15.3216 15.018C13.8285 16.0148 12.9313 17.3951 12.74 19.1859C12.6739 19.824 12.7075 20.4733 12.696 21.1171C12.696 21.1766 12.6963 21.2361 12.6967 21.2957C12.7001 21.4575 12.6816 21.6151 12.4938 21.6778C12.3025 21.7436 12.1874 21.6284 12.0891 21.4862C12.0947 20.818 12.0947 20.1445 12.0947 19.4762Z" fill="#F5E8E0"/>
<path d="M15.6993 20.624V21.2397C15.6885 21.8806 15.8361 22.4718 16.2134 22.9979C16.2956 23.1075 16.3502 23.2445 16.2463 23.3537C16.1806 23.4248 16.055 23.4742 15.9564 23.4798C15.8906 23.4854 15.7979 23.4087 15.7486 23.3429C15.3656 22.8172 15.147 22.2256 15.1306 21.5738C15.1142 20.9385 15.1198 20.3032 15.1306 19.6678C15.1362 19.1968 15.2674 18.7534 15.4751 18.3317C15.5734 18.1401 15.7322 18.0742 15.8906 18.1618C16.0438 18.2441 16.0931 18.4028 15.9945 18.5835C15.7647 19.0325 15.6881 19.5144 15.6937 20.0128C15.6993 20.2156 15.6993 20.418 15.6993 20.6261" fill="#F5E8E0"/>
<path d="M19.7865 16.9787C19.7865 17.2088 19.6169 17.3184 19.3871 17.269C19.0699 17.1979 18.7471 17.1156 18.4246 17.0992C17.8723 17.0718 17.3634 17.247 16.9042 17.5538C16.8605 17.5867 16.8168 17.6196 16.7675 17.6469C16.6034 17.7401 16.4502 17.7072 16.3572 17.5646C16.2697 17.4333 16.2914 17.2799 16.4394 17.1703C17.0682 16.6992 17.7793 16.4691 18.5613 16.5185C18.8894 16.5405 19.2178 16.6334 19.5403 16.7048C19.6879 16.7377 19.7865 16.8309 19.7865 16.9787Z" fill="#F5E8E0"/>
<path d="M24.6705 18.6437C24.6814 19.52 24.6978 20.3689 24.7087 21.2232C24.7087 21.289 24.7087 21.3601 24.7031 21.426C24.6866 21.5958 24.5883 21.689 24.424 21.6942C24.2543 21.6942 24.1448 21.5958 24.1396 21.4151C24.134 21.1959 24.1452 20.977 24.134 20.7581C24.112 20.15 24.1067 19.5424 24.0518 18.9396C24.0081 18.485 24.041 18.5673 23.6251 18.5726C23.4502 18.5726 23.275 18.6055 23.0837 18.622C23.1218 18.9123 23.1659 19.1806 23.1984 19.4436C23.2148 19.5862 23.2204 19.7284 23.2204 19.8709C23.2148 20.0516 23.111 20.1613 22.9469 20.1665C22.7773 20.1721 22.6678 20.0842 22.6461 19.9035C22.6189 19.6681 22.608 19.4272 22.5804 19.1915C22.564 19.0489 22.5202 18.9176 22.4821 18.7312C22.2086 18.8353 21.9624 18.9284 21.7217 19.0324C21.6889 19.0489 21.6672 19.1365 21.6724 19.1911C21.7871 20.0674 21.7655 20.9493 21.6997 21.8308C21.6067 23.1288 20.5018 24.3392 19.1783 24.6348C19.0524 24.6622 18.9268 24.6895 18.7681 24.7224C18.8502 24.9963 18.9157 25.2481 19.0087 25.4947C19.0251 25.5385 19.1727 25.5605 19.2493 25.5441C19.7963 25.4344 20.3213 25.2429 20.7645 24.9031C21.1964 24.569 21.634 24.5032 22.1481 24.6566C22.6731 24.81 23.2037 24.9248 23.7342 25.0674C23.9203 25.1168 24.0077 25.2537 23.9693 25.4124C23.9311 25.5766 23.8105 25.6533 23.6083 25.626C23.5702 25.6204 23.5261 25.6096 23.488 25.6039C23.0505 25.4943 22.6073 25.4068 22.181 25.2698C21.7378 25.1273 21.366 25.1549 20.9831 25.4561C20.562 25.7847 20.0534 25.9654 19.5281 26.0859C19.4623 26.1023 19.3969 26.1241 19.293 26.1517C19.4354 26.4312 19.5938 26.683 19.7907 26.9019C19.818 26.9348 19.9219 26.924 19.9768 26.9019C20.272 26.7979 20.5728 26.6939 20.8575 26.5678C21.0817 26.4694 21.295 26.4309 21.5301 26.4911C21.7487 26.5457 21.9732 26.5787 22.1918 26.628C22.4052 26.6774 22.5034 26.8032 22.4709 26.9839C22.438 27.1537 22.2796 27.2578 22.0771 27.1919C21.563 27.0385 21.0653 27.0168 20.5896 27.3124C20.5074 27.3618 20.4035 27.3835 20.2724 27.4329C20.3434 27.504 20.3983 27.5642 20.4584 27.6136C21.9624 28.8513 23.658 29.2237 25.5012 28.5939C27.3444 27.9642 28.471 26.6442 28.8977 24.7382C28.925 24.6121 28.9414 24.4807 28.9687 24.3547C29.0124 24.1739 29.1219 24.0972 29.2915 24.1137C29.4499 24.1301 29.5486 24.245 29.5321 24.437C29.4884 24.9518 29.3573 25.4502 29.1492 25.9157C28.2524 27.9313 26.71 29.1305 24.5222 29.4208C21.4923 29.8205 18.6974 27.7064 18.178 24.6779C17.6422 21.5615 19.7858 18.5547 22.898 18.0563C26.0811 17.5471 29.0453 19.6993 29.5213 22.8759C29.5321 22.947 29.5377 23.0237 29.5321 23.1005C29.5265 23.2591 29.4391 23.3523 29.2807 23.3687C29.1222 23.3852 29.0127 23.3085 28.9743 23.1551C28.925 22.9414 28.9033 22.7225 28.8484 22.5142C28.2797 20.433 26.9286 19.1568 24.8339 18.664C24.7793 18.6419 24.708 18.6419 24.6698 18.6419M21.1037 19.3484C20.9177 19.4853 20.7809 19.5949 20.6281 19.6881C20.3217 19.8797 20.1685 20.1371 20.2342 20.5097C20.2507 20.6082 20.2398 20.7125 20.2342 20.8166C20.2286 21.1234 20.2615 21.4354 20.2014 21.7366C20.0646 22.4704 19.6106 22.947 18.8943 23.1659C18.8286 23.188 18.7247 23.2318 18.7194 23.27C18.703 23.5439 18.7138 23.823 18.7138 24.0969C18.7576 24.1025 18.7796 24.1077 18.8013 24.1077C20.0538 23.9599 21.1093 22.8262 21.1474 21.5664C21.1639 20.9367 21.153 20.3122 21.1474 19.6825C21.1418 19.5841 21.1202 19.4909 21.1037 19.3484ZM19.6215 20.7777C19.2332 21.3307 18.9762 21.9058 18.8286 22.5576C19.5396 22.3222 19.7747 21.6154 19.6215 20.7777Z" fill="#F5E8E0"/>
<path d="M23.2267 21.8463C23.2267 22.0106 23.2212 22.1748 23.2267 22.3391C23.2432 22.7552 23.4345 23.0567 23.8227 23.2098C24.0305 23.2921 24.2494 23.3576 24.4572 23.4343C24.6649 23.511 24.7471 23.6479 24.6922 23.823C24.6429 23.9873 24.4789 24.0475 24.2655 23.982C24.0851 23.9218 23.9046 23.8616 23.7241 23.8013C23.0624 23.5712 22.685 23.1113 22.6413 22.4102C22.6192 22.0379 22.6304 21.66 22.6357 21.2821C22.6357 21.1287 22.6958 20.9973 22.8655 20.9588C23.0515 20.915 23.21 21.0463 23.2208 21.2544C23.2264 21.4516 23.2208 21.6488 23.2264 21.8459H23.2194" fill="#F5E8E0"/>
</svg>
