<svg width="45" height="45" viewBox="0 0 45 45" fill="none" xmlns="http://www.w3.org/2000/svg">
<rect width="45" height="45" rx="10" fill="#EDDED1"/>
<path d="M40.8495 23.2582C41.6241 28.2761 39.3391 30.8693 35.6034 34.901C31.6109 39.2097 32.3873 39.8364 25.1794 39.9109C12.315 40.0438 9.30218 41.0887 6.02862 30.53C4.47408 25.5161 2.86674 21.6878 5.10214 16.6728C7.43522 11.4374 11.6852 6.88922 18.581 5.81844C27.5757 4.4217 36.3281 3.96357 39.6935 11.6146C41.122 14.8619 40.2925 19.6496 40.8498 23.2585" fill="#A35330"/>
<path d="M13.0072 24.3842C11.0811 21.4972 12.0035 17.898 14.123 16.2151C15.3819 15.2115 16.7908 14.8296 18.3614 15.0693C19.9319 15.309 21.0913 16.2539 22.1011 17.4642C22.338 17.2182 22.5562 17.0046 22.7679 16.778C23.896 15.574 25.2674 14.9719 26.888 15.0044C29.3813 15.0562 31.6066 16.9916 32.1239 19.5742C32.4603 21.2441 32.186 22.7979 31.2888 24.2285C31.2701 24.2543 31.2514 24.2804 31.2388 24.3125C31.2327 24.3256 31.2327 24.345 31.2262 24.3771C31.2949 24.3834 31.3571 24.3902 31.4257 24.3902H33.601C33.8691 24.3902 34 24.4872 34 24.6813C33.9939 24.8691 33.8566 24.9725 33.5888 24.9725C32.7037 24.9725 31.8122 24.9662 30.9271 24.9789C30.815 24.9789 30.6715 25.0435 30.5907 25.1278C27.8729 27.9954 25.1617 30.8696 22.444 33.7435C22.1198 34.0866 22.0637 34.0866 21.7333 33.7371C19.053 30.876 16.3666 28.0215 13.6863 25.1603C13.5615 25.0308 13.4432 24.9725 13.2624 24.9725C12.6391 24.9856 12.0157 24.9856 11.3924 24.9725C11.2741 24.9725 11.1242 24.908 11.0559 24.8236C10.9125 24.6489 11.062 24.4092 11.3115 24.4028C11.8349 24.3965 12.3526 24.4028 12.876 24.4028C12.9073 24.3965 12.9446 24.3898 13.0068 24.3834M22.8053 25.3985C22.8675 25.282 22.9113 25.2107 22.9487 25.1331C23.3291 24.3692 23.7155 23.5991 24.0955 22.8352C24.1828 22.6605 24.2889 22.5179 24.4945 22.5116C24.7001 22.5052 24.8188 22.6411 24.9122 22.8095C25.1678 23.2821 25.4356 23.7417 25.6912 24.2143C25.7599 24.3439 25.8408 24.389 25.9842 24.389C27.4178 24.3827 28.8515 24.389 30.2851 24.376C30.3911 24.376 30.5281 24.3047 30.5907 24.2207C31.6813 22.7318 31.9869 21.0746 31.4696 19.2816C30.3789 15.4818 25.8972 14.323 23.2108 17.1323C22.9365 17.4172 22.6687 17.7084 22.3944 17.9996C22.1888 18.2131 22.0702 18.2198 21.8645 18.0059C21.5529 17.6886 21.2538 17.3585 20.936 17.0479C19.5897 15.7275 18.0065 15.2549 16.2174 15.76C12.702 16.7441 11.3679 21.249 13.6431 24.2397C13.7053 24.3237 13.8487 24.3819 13.9548 24.3819C15.6066 24.3883 17.2585 24.3883 18.9099 24.3883C19.3006 24.3883 19.5602 24.1919 19.6889 23.7992C19.9197 23.1067 20.1501 22.4138 20.3745 21.7149C20.4431 21.5077 20.5366 21.346 20.767 21.333C21.01 21.3199 21.1287 21.4752 21.2095 21.6824C21.2157 21.7018 21.2282 21.7276 21.2344 21.747C21.7578 22.951 22.2754 24.155 22.8049 25.3978M22.0881 33.282C24.7059 30.5116 27.3053 27.7605 29.9418 24.9718H29.6301C28.3773 24.9707 27.1245 24.9643 25.8652 24.977C25.5784 24.977 25.3979 24.8736 25.2667 24.6145C25.0359 24.1744 24.7807 23.7406 24.5251 23.2747C24.469 23.3848 24.4255 23.4557 24.3816 23.5337C23.9891 24.3233 23.6026 25.1133 23.1975 25.8965C23.1353 26.0193 23.0106 26.1362 22.8858 26.1877C22.6802 26.2654 22.512 26.1425 22.3998 25.8835C21.9138 24.7571 21.4335 23.6308 20.9536 22.5045C20.9162 22.4205 20.8788 22.3428 20.8227 22.226C20.7792 22.3425 20.7541 22.4138 20.7293 22.4914C20.505 23.1712 20.2868 23.8507 20.0624 24.5305C19.9377 24.9124 19.8442 24.9837 19.4517 25.0282H14.297C16.9087 27.7669 19.4891 30.5116 22.0885 33.282" fill="#F5E8E0"/>
</svg>
