<svg width="45" height="45" viewBox="0 0 45 45" fill="none" xmlns="http://www.w3.org/2000/svg">
<rect width="45" height="45" rx="10" fill="#EDDED1"/>
<path d="M39.8535 23.7367C40.6072 28.6112 38.3839 31.13 34.7491 35.0466C30.8646 39.2323 31.6199 39.841 24.6071 39.9134C12.0905 40.0427 9.15896 41.0574 5.97388 30.8006C4.4614 25.9299 2.89741 22.211 5.07215 17.3394C7.34244 12.2536 11.4771 7.83539 18.1866 6.79508C26.9384 5.4382 35.4542 4.99326 38.7286 12.4253C40.1184 15.5802 39.3115 20.2311 39.8535 23.7367Z" fill="#633C27"/>
<path d="M25.5387 31.6423C26.3474 32.7341 25.9652 33.8875 24.7032 34.2602C24.6053 34.2869 24.5078 34.411 24.4631 34.5177C24.0809 35.5028 23.2897 36.0085 22.1077 35.9996C21.05 35.9906 20.2766 35.4492 19.9123 34.482C19.8765 34.3932 19.7965 34.2955 19.7169 34.2691C18.3927 33.8254 18.028 32.7872 18.8281 31.6423C18.4459 31.1897 18.2059 30.6394 18.4902 30.098C18.7745 29.5655 18.5702 29.1928 18.2948 28.8112C18.0284 28.4474 17.7262 28.1011 17.3972 27.7905C13.8419 24.4183 14.8553 18.5788 19.3347 16.5908C23.6012 14.7006 28.5075 17.5492 28.934 22.1817C29.1383 24.4358 28.3653 26.3171 26.7386 27.8882C26.321 28.2966 25.992 28.8112 25.6451 29.2902C25.5919 29.3612 25.574 29.5388 25.6272 29.6097C26.0984 30.3109 26.0537 30.9764 25.5383 31.642M19.4496 29.0683C19.645 29.0505 19.7961 29.0327 19.9472 29.0327C21.4672 29.0327 22.9871 29.0416 24.5159 29.0237C24.6138 29.0237 24.756 28.9349 24.8003 28.8461C25.1203 28.2159 25.5468 27.6745 26.0712 27.2045C27.8401 25.6159 28.4799 23.1311 27.689 20.8945C26.9067 18.6583 24.8535 17.0962 22.4895 16.9453C20.0272 16.7855 17.7343 18.1611 16.6941 20.4152C15.6718 22.6429 16.134 25.2785 17.8761 27.009C18.5073 27.6303 19.0849 28.2601 19.4493 29.068M22.1512 31.2503H24.2833C24.2833 31.2503 25.0058 30.9481 25.0058 30.565C25.0058 30.1818 24.3011 29.9142 24.3011 29.9142H20.0202C19.5735 29.9142 19.2908 30.169 19.2908 30.5514C19.3001 30.9156 19.5642 31.1521 20.002 31.161L22.1512 31.2503ZM22.1422 33.362H24.2751C24.7106 33.362 24.9953 33.1134 24.9863 32.7407C24.9774 32.3858 24.7195 32.1461 24.293 32.1461C22.8709 32.1372 21.4489 32.1372 20.0265 32.1461C19.6 32.1461 19.342 32.3769 19.3331 32.7407C19.3331 33.1134 19.5996 33.353 20.0443 33.353C20.7377 33.362 21.44 33.362 22.1419 33.362M23.4586 34.2671H20.862C21.111 34.8528 21.5732 35.0746 22.3819 35.0393C22.8974 35.0125 23.3153 34.7108 23.4575 34.2671" fill="#F5E8E0"/>
<path d="M32.5514 23.4336C32.2492 23.4336 31.956 23.4425 31.6538 23.4336C31.3073 23.4247 31.0936 23.2385 31.0936 22.9542C31.0936 22.67 31.298 22.4838 31.627 22.4749C32.2403 22.466 32.8447 22.466 33.458 22.4749C33.8045 22.4838 34.0092 22.6878 34.0003 22.9717C33.9913 23.2467 33.787 23.4243 33.458 23.4332C33.1469 23.4421 32.8447 23.4332 32.5514 23.4332" fill="#F5E8E0"/>
<path d="M28.6939 16.7332C28.5696 16.6354 28.3917 16.5555 28.3474 16.4314C28.2942 16.2895 28.3031 16.0498 28.4006 15.9432C28.8718 15.4285 29.3694 14.9403 29.8763 14.4613C30.0631 14.2926 30.2939 14.3193 30.4718 14.5055C30.6671 14.7006 30.685 14.9403 30.4986 15.1268C30.0363 15.6151 29.5477 16.0851 29.0676 16.5555C28.9876 16.6354 28.8543 16.6622 28.6943 16.7332" fill="#F5E8E0"/>
<path d="M21.2799 12.4291C21.2799 12.1273 21.271 11.8345 21.2799 11.5328C21.2889 11.1954 21.4578 11.0092 21.7422 11.0003C22.0354 10.9914 22.2223 11.1779 22.2223 11.506C22.2312 12.1273 22.2312 12.7397 22.2223 13.361C22.2223 13.6895 22.0269 13.8756 21.7422 13.8756C21.4574 13.8756 21.2799 13.6806 21.2799 13.3521V12.4291Z" fill="#F5E8E0"/>
<path d="M11.4417 22.5106C11.7618 22.5106 12.0819 22.5017 12.4015 22.5106C12.7037 22.5195 12.8991 22.7057 12.8991 22.981C12.8991 23.2564 12.7123 23.4515 12.4101 23.4515C11.77 23.4604 11.1213 23.4604 10.4811 23.4515C10.1879 23.4426 9.98356 23.2296 10.001 22.9721C10.0189 22.6882 10.1879 22.5285 10.4722 22.5195C10.7923 22.5017 11.112 22.5106 11.441 22.5106" fill="#F5E8E0"/>
<path d="M15.7079 16.2538C15.6189 16.3605 15.5478 16.5377 15.4235 16.5912C15.2814 16.6444 15.0324 16.6444 14.9434 16.5556C14.428 16.0851 13.939 15.5883 13.4593 15.0822C13.2992 14.9135 13.3171 14.6827 13.4861 14.5055C13.655 14.3279 13.8951 14.2837 14.0547 14.4435C14.588 14.9403 15.0945 15.4642 15.6104 15.9878C15.6547 16.032 15.6636 16.1208 15.7083 16.2538" fill="#F5E8E0"/>
</svg>
