<svg width="45" height="45" viewBox="0 0 45 45" fill="none" xmlns="http://www.w3.org/2000/svg">
<rect width="45" height="45" rx="10" fill="#EDDED1"/>
<path d="M39.8535 23.7367C40.6072 28.6112 38.3839 31.13 34.7491 35.0466C30.8646 39.2323 31.6199 39.841 24.6071 39.9134C12.0905 40.0427 9.15896 41.0574 5.97388 30.8006C4.4614 25.9299 2.89741 22.211 5.07215 17.3394C7.34244 12.2536 11.4771 7.83539 18.1866 6.79508C26.9384 5.4382 35.4542 4.99326 38.7286 12.4253C40.1184 15.5802 39.3115 20.2311 39.8535 23.7367Z" fill="#5A5223"/>
<path d="M24.8104 29.3132C24.597 29.1719 24.3775 29.2552 24.1836 29.5123C23.912 29.8783 23.6342 30.2442 23.3176 30.5716C22.7102 31.1942 22.1608 31.862 21.6891 32.5939C21.4824 32.9212 21.2563 33.2293 21.0236 33.5377C20.7003 33.9615 20.2612 34.1669 19.7246 34.1669C19.0334 34.1735 18.3484 34.1735 17.6634 34.1669C17.1656 34.1603 16.7456 33.987 16.4293 33.6018C16.2355 33.3578 16.0416 33.1073 15.8737 32.8444C15.3049 31.9392 14.6397 31.1046 13.8641 30.36C13.4507 29.962 13.1274 29.4934 12.9273 28.9476C12.6623 28.2416 12.6557 27.5031 12.7012 26.7651C12.7529 25.9305 12.7529 25.1025 12.6235 24.2741C12.5073 23.5488 12.3779 22.8231 12.294 22.0916C12.139 20.7178 12.184 19.3378 12.2489 17.9639C12.3266 16.3462 12.9922 15.0237 14.3619 14.1057C17.037 12.3081 20.7718 12.4366 23.2985 14.3111C23.5829 14.5164 23.8219 14.5292 23.9835 14.3304C24.1514 14.125 24.0935 13.8745 23.8025 13.6626C23.5697 13.4958 23.3308 13.3225 23.0786 13.1812C20.274 11.6526 17.4244 11.6078 14.5814 13.0457C12.7268 13.983 11.6284 15.5043 11.4602 17.5907C11.3825 18.5472 11.4019 19.5099 11.3762 20.473V20.7297C10.6073 20.5819 10.2712 20.8004 10.1034 21.5257C10.0711 21.6604 10.0451 21.789 10.0128 21.9237C10.0128 22.405 10.0128 22.8868 10 23.3681C10.0389 23.6121 10.0645 23.8626 10.1228 24.1C10.3617 25.082 10.8851 25.8911 11.6995 26.501C11.8223 26.5975 11.8612 26.6937 11.8545 26.8411C11.8029 27.7977 11.8674 28.7415 12.3068 29.6274C12.6235 30.2693 13.0758 30.8086 13.6057 31.2838C13.8513 31.5019 14.8204 32.795 14.8398 32.795C15.0589 33.1162 15.2847 33.4435 15.4976 33.7577C16.0781 34.6116 16.8711 35.0416 17.9291 34.9968C18.632 34.9648 19.3353 34.9968 20.0316 34.9582C20.696 34.9262 21.231 34.5923 21.6375 34.0851C21.9149 33.745 22.1535 33.3725 22.4115 33.0131C22.4693 32.9425 22.521 32.8591 22.6049 32.7371C22.6116 32.8591 23.5313 31.5277 23.7185 31.3224C24.1257 30.8792 24.5135 30.4172 24.8815 29.942C25.0754 29.698 25.0171 29.4475 24.8104 29.3128V29.3132ZM10.9974 21.5091C11.2301 21.6245 11.424 21.7531 11.4625 22.0356C11.5853 22.8957 11.7209 23.7561 11.8375 24.6227C11.8825 24.9307 11.902 25.2388 11.9342 25.6047C10.8163 24.6547 10.6613 22.7482 10.9974 21.5091Z" fill="#F5E8E0"/>
<path d="M35 17.7461C34.8844 17.939 34.6978 18.0053 34.4473 17.9997C33.7725 17.9887 33.0977 17.9997 32.4225 17.994C31.9726 17.994 31.7991 17.7461 32.0113 17.4097C32.1783 17.1453 32.1334 16.8751 31.8826 16.7041C31.6511 16.5444 31.3361 16.5497 31.105 16.7151C30.8673 16.8861 30.8221 17.1449 30.9829 17.4041C31.2352 17.7925 30.9728 18.0706 30.354 17.9748C29.9548 17.9725 29.566 17.9702 29.1667 17.9679C28.4657 18.0872 28.0081 17.7869 28.0003 17.2444V15.7781C28.0003 15.3976 28.296 15.2545 28.6879 15.4364C28.9836 15.5743 29.292 15.5355 29.4914 15.3373C29.6777 15.1444 29.6843 14.8634 29.5042 14.6758C29.3047 14.472 28.9963 14.4279 28.7006 14.5545C28.2144 14.7659 27.9335 14.5634 28.0139 14.0096C28.0139 13.542 28.0139 13.08 28.0139 12.6123C27.9536 12.1785 28.0857 12.0025 28.495 12.0025C30.2369 12.0025 31.9788 11.9969 33.7207 12.0025C34.4021 12.0025 34.794 12.3386 34.9869 12.8679C34.9996 14.4995 34.9996 16.1198 34.9996 17.7458M34.1783 17.2702V13.1688C34.1783 12.8158 34.0434 12.7002 33.626 12.7002H28.8487V13.7531C29.8825 13.8194 30.4603 14.2549 30.4735 14.9661C30.48 15.2913 30.3579 15.5779 30.1075 15.8152C29.7735 16.1351 29.3434 16.2507 28.8487 16.2176V17.2705H30.0561C30.1268 16.3939 30.6339 15.8978 31.4432 15.8756C31.8219 15.8646 32.1558 15.9637 32.4384 16.1732C32.8237 16.4599 32.9648 16.8294 32.9265 17.2702H34.1787H34.1783Z" fill="#F5E8E0"/>
<path d="M25.9734 17.8683C27.0006 17.9914 27.5527 18.461 27.5272 19.2354C27.502 19.9922 26.9369 20.4501 25.9089 20.5263V21.5794H27.1086C27.1719 20.6787 27.718 20.1273 28.5555 20.1333C29.2027 20.1393 30.0086 20.6025 29.9643 21.639H30.212C30.6497 21.6295 31.0812 21.6235 31.5193 21.6295C31.8368 21.6355 31.9951 21.7763 31.9951 22.0638C32.0016 23.6655 32.0016 25.2673 31.9951 26.869C31.9886 27.5319 31.4685 27.9955 30.7512 27.9955C27.2547 28.0015 23.7579 28.0015 20.2614 27.9955C19.5128 27.9955 19.0114 27.5319 19.0049 26.8337C18.9984 23.6126 18.9984 20.3972 19.0049 17.1761C19.0049 16.4779 19.5189 16.0087 20.2805 16.0027C21.9877 15.9967 23.6884 16.0027 25.3953 16.0027C25.7635 16.0027 25.9092 16.1434 25.9737 16.4895V17.8683H25.9734ZM31.1709 22.3933H29.4374C29.4374 22.3933 28.8536 22.116 29.0375 21.7639C29.1073 21.6292 29.1455 21.4531 29.1199 21.3064C29.0817 21.0657 28.8852 20.931 28.625 20.8897C28.3838 20.8544 28.1873 20.9426 28.0476 21.1243C27.8954 21.3236 27.9015 21.535 28.0286 21.7463C28.2506 22.116 28.0858 22.3799 27.6287 22.3933H25.9089V23.9055C25.9089 24.416 25.6616 24.5567 25.1793 24.3278C24.7477 24.1284 24.2719 24.41 24.291 24.8499C24.31 25.2842 24.7924 25.5072 25.2365 25.2842C25.6047 25.0965 25.9028 25.2549 25.9154 25.6423C25.9218 25.7891 25.9734 26.0822 25.9734 26.0822V27.2783H30.5894C31.0583 27.2783 31.1709 27.1728 31.1709 26.7392V22.6604C31.1709 22.5842 31.1709 22.393 31.1709 22.393M21.0471 21.5787C21.0406 20.781 21.5306 20.2091 22.3296 20.1139C22.6841 20.0722 23.0191 20.1555 23.3156 20.3464C23.7926 20.6501 23.9407 21.6383 23.9407 21.6383H25.0709C25.0709 21.0855 25.0644 20.5499 25.0709 20.0147C25.0774 19.6499 25.3682 19.5028 25.7223 19.6676C25.8486 19.7265 26.0069 19.7734 26.1462 19.7674C26.4057 19.7558 26.5827 19.6087 26.6587 19.3733C26.7346 19.144 26.6652 18.9496 26.4751 18.7969C26.2729 18.6261 26.0134 18.6145 25.7478 18.7439C25.3495 18.938 25.0774 18.7909 25.0713 18.3791C25.0648 17.9614 25.0713 17.5437 25.0713 17.126V16.7848C24.9892 16.7788 24.9511 16.7732 24.9133 16.7732H20.29C19.942 16.7732 19.8092 16.9087 19.8092 17.2378V21.5787H21.0475H21.0471ZM25.0709 22.4127H23.3275C22.9027 22.4127 22.7505 22.1492 22.9344 21.7922C23.0042 21.6574 23.0359 21.4817 23.0168 21.3356C22.9787 21.1074 22.7948 20.9726 22.5475 20.9317C22.3002 20.8908 22.0911 20.9786 21.9515 21.1659C21.8057 21.3593 21.8057 21.5583 21.9263 21.7632C22.1545 22.1672 21.9961 22.4071 21.5016 22.4131H19.8089V26.7677C19.8089 27.0496 20.0561 27.2783 20.361 27.2783H25.0709V26.1719C24.0311 26.084 23.4667 25.6275 23.4606 24.8605C23.4541 24.0935 23.9994 23.637 25.0709 23.5255C25.0644 23.1625 25.0644 22.7994 25.0644 22.4131" fill="#F5E8E0"/>
</svg>
