<svg width="45" height="45" viewBox="0 0 45 45" fill="none" xmlns="http://www.w3.org/2000/svg">
<rect width="45" height="45" rx="10" fill="#EDDED1"/>
<path d="M39.8535 22.7367C40.6073 27.6113 38.3839 30.1302 34.7492 34.0466C30.8648 38.2322 31.6199 38.841 24.6069 38.9135C12.0902 39.0427 9.1589 40.0573 5.97367 29.8006C4.46132 24.9299 2.89756 21.2111 5.072 16.3393C7.34227 11.2539 11.4771 6.83528 18.1868 5.79508C26.9384 4.43826 35.4543 3.99311 38.7287 11.4255C40.1183 14.5801 39.3114 19.2309 39.8535 22.7367Z" fill="#5A5223"/>
<path d="M22.4658 35.9748C22.0217 35.9124 21.5841 35.8683 21.14 35.7933C16.2502 34.9672 12.2237 31.0805 11.2741 26.167C10.3863 21.5921 11.6627 17.6678 14.9923 14.4444C16.0654 13.4054 17.3293 12.6418 18.7106 12.0849C19.0313 11.9536 19.1977 11.9723 19.3086 12.16C19.426 12.3476 19.3701 12.5043 19.1053 12.736C17.7179 13.9626 16.7068 15.4463 16.0714 17.1987C14.0487 22.7755 16.7988 28.9654 22.25 31.1372C23.8841 31.7882 25.5797 32.0195 27.3246 31.838C27.5714 31.8131 27.7438 31.9257 27.7748 32.1321C27.8057 32.3451 27.6699 32.5078 27.4046 32.5388C25.7951 32.7203 24.2104 32.5764 22.6812 32.0505C18.889 30.7423 16.3238 28.1512 15.1893 24.2644C14.0793 20.4401 14.8071 16.9038 17.2055 13.7309C17.218 13.7122 17.23 13.6934 17.2425 13.6685C16.4038 13.8627 14.1962 16.1157 13.259 17.7368C12.2724 19.4456 11.7423 21.298 11.6868 23.276C11.545 28.6211 14.9859 33.3714 20.073 34.8363C24.9318 36.2383 29.6986 34.1791 32.1774 30.9059C32.0725 30.9622 32.0111 30.9936 31.9431 31.0311C31.1044 31.5255 30.2227 31.9074 29.2915 32.1701C29.199 32.1949 29.0696 32.2325 29.0017 32.1888C28.8908 32.1138 28.7735 31.9885 28.755 31.8698C28.718 31.6944 28.8538 31.5757 29.0262 31.5194C29.4269 31.3815 29.834 31.2628 30.2287 31.1062C31.3757 30.6367 32.4053 29.9795 33.3365 29.1596C33.4289 29.0784 33.5583 28.9968 33.6757 28.9968C33.9409 28.9841 34.0948 29.2909 33.9345 29.5414C33.5583 30.1422 33.2067 30.7619 32.769 31.3126C30.7218 33.8976 28.0581 35.4123 24.8145 35.894C24.5183 35.9377 24.2225 35.963 23.9203 36.0005C23.4517 35.9756 22.9581 35.9756 22.465 35.9756" fill="#F5E8E0"/>
<path d="M27.2571 21.4606C26.5727 21.9611 25.8943 22.4621 25.216 22.9626C25.1545 23.0063 25.0926 23.0503 25.0311 23.1005C24.8952 23.207 24.7474 23.2257 24.5995 23.1254C24.4451 23.0189 24.4206 22.8561 24.4761 22.6873C24.6425 22.1553 24.8153 21.6169 24.9877 21.0849C25.0801 20.7969 25.1665 20.5028 25.2714 20.2213C25.3269 20.0773 25.2899 19.9962 25.1729 19.9146C24.501 19.4263 23.8411 18.9319 23.1687 18.4501C23.0084 18.331 22.879 18.1997 22.9469 17.9871C23.0148 17.7681 23.1937 17.7367 23.391 17.7367C24.2173 17.7367 25.0375 17.7305 25.8638 17.7428C26.0241 17.7428 26.0921 17.6926 26.1351 17.5364C26.3879 16.7352 26.6467 15.934 26.8999 15.1329C26.9613 14.9452 27.0478 14.8012 27.2575 14.8012C27.4673 14.8012 27.5598 14.9452 27.6212 15.1329C27.874 15.9279 28.1393 16.7164 28.3796 17.5111C28.4351 17.68 28.503 17.7428 28.6818 17.7428C29.5141 17.7301 30.3468 17.7367 31.1792 17.7428C31.4938 17.7428 31.6787 17.9679 31.5678 18.2184C31.5308 18.3122 31.4384 18.3873 31.352 18.4501C30.6921 18.9384 30.0326 19.4263 29.3666 19.9085C29.2308 20.0084 29.2003 20.09 29.2557 20.2527C29.5145 21.0352 29.7613 21.8237 30.0141 22.6061C30.0756 22.8064 30.1125 22.994 29.9152 23.1319C29.7303 23.2633 29.57 23.1694 29.4096 23.0507C28.7562 22.569 28.1023 22.0868 27.4488 21.605C27.3873 21.5549 27.3255 21.5112 27.2575 21.461M25.4507 21.9371C25.9687 21.5614 26.4188 21.2236 26.8749 20.892C27.2326 20.6293 27.2756 20.6293 27.6397 20.8981C28.0898 21.2297 28.546 21.5614 29.052 21.9371C28.8546 21.3174 28.6818 20.7667 28.503 20.2095C28.3796 19.815 28.3921 19.7714 28.7248 19.5275C29.181 19.1897 29.6435 18.8515 30.1491 18.4758C30.0133 18.4697 29.9458 18.4632 29.8718 18.4632H28.3671C27.997 18.4632 27.9295 18.413 27.8182 18.0626C27.6518 17.5494 27.4914 17.0424 27.3251 16.5292C27.3066 16.479 27.2821 16.4288 27.2451 16.3415C27.0478 16.9612 26.8565 17.5372 26.6776 18.1189C26.6037 18.3693 26.4558 18.4693 26.203 18.4632C25.6725 18.4571 25.1424 18.4632 24.6059 18.4632C24.5444 18.4632 24.4825 18.4758 24.3716 18.4819C24.8647 18.845 25.3152 19.1766 25.7653 19.5083C26.117 19.771 26.1355 19.815 25.9996 20.2279C25.8208 20.7786 25.648 21.3293 25.4507 21.9367" fill="#F5E8E0"/>
</svg>
