<svg width="16" height="14" viewBox="0 0 16 14" fill="none" xmlns="http://www.w3.org/2000/svg">
<path d="M15 0H1C0.447715 0 0 0.447716 0 1C0 1.55229 0.447715 2 1 2H15C15.5523 2 16 1.55229 16 1C16 0.447716 15.5523 0 15 0Z" fill="#FAFAFA"/>
<path d="M15 6.00003H1C0.447715 6.00003 0 6.44775 0 7.00003C0 7.55232 0.447715 8.00003 1 8.00003H15C15.5523 8.00003 16 7.55232 16 7.00003C16 6.44775 15.5523 6.00003 15 6.00003Z" fill="#FAFAFA"/>
<path d="M9.68572 12H1C0.447715 12 0 12.4477 0 13C0 13.5523 0.447714 14 0.999999 14H9.68572C10.238 14 10.6857 13.5523 10.6857 13C10.6857 12.4477 10.238 12 9.68572 12Z" fill="#FAFAFA"/>
</svg>
