<svg width="25" height="18" viewBox="0 0 25 18" fill="none" xmlns="http://www.w3.org/2000/svg">
<path d="M23.5284 0H1C0.447715 0 0 0.447715 0 1C0 1.55228 0.447714 2 0.999999 2H23.5284C24.0806 2 24.5284 1.55228 24.5284 1C24.5284 0.447715 24.0806 0 23.5284 0Z" fill="#FAFAFA"/>
<path d="M23.5284 8H1C0.447715 8 0 8.44772 0 9C0 9.55228 0.447714 10 0.999999 10H23.5284C24.0806 10 24.5284 9.55228 24.5284 9C24.5284 8.44772 24.0806 8 23.5284 8Z" fill="#FAFAFA"/>
<path d="M15.3814 16H1C0.447715 16 0 16.4477 0 17C0 17.5523 0.447715 18 1 18H15.3814C15.9337 18 16.3814 17.5523 16.3814 17C16.3814 16.4477 15.9337 16 15.3814 16Z" fill="#FAFAFA"/>
</svg>
