<svg width="26" height="24" viewBox="0 0 26 24" fill="none" xmlns="http://www.w3.org/2000/svg">
<path d="M12.3105 3.17949L12.3109 3.17994L12.3111 3.18008L12.3115 3.18047L13.008 3.84468L13.6967 3.17259C13.6965 3.17281 13.6966 3.17271 13.697 3.17229L13.697 3.17228L13.6973 3.17201L13.6978 3.17154L13.7036 3.16605C13.7106 3.15944 13.7227 3.14804 13.7399 3.13234C13.7742 3.10092 13.8284 3.05241 13.901 2.99072C14.0465 2.86713 14.2642 2.69198 14.5425 2.49607C15.1032 2.10131 15.8877 1.63782 16.8048 1.3324C17.7185 1.02812 18.7386 0.888631 19.7986 1.10456C20.8491 1.31854 22.0128 1.89615 23.2035 3.14524L23.2091 3.15117L23.212 3.15406C23.212 3.15405 23.2122 3.15429 23.2127 3.15478C23.2131 3.15525 23.2138 3.15596 23.2147 3.1569C23.2183 3.16072 23.2255 3.16833 23.2359 3.17965C23.2567 3.20231 23.2904 3.23973 23.3341 3.29119C23.4216 3.39428 23.5489 3.55268 23.6946 3.76069C23.9876 4.17866 24.3471 4.78512 24.6145 5.53574C25.1391 7.00825 25.3274 9.0682 23.8639 11.4632L23.7812 11.5986L23.7588 11.6926C23.7408 11.7308 23.6979 11.8153 23.611 11.9549C23.422 12.2587 23.0405 12.7992 22.2972 13.6629C20.8693 15.3217 18.1487 18.1239 13 22.6683C7.85126 18.1239 5.13068 15.3217 3.70284 13.6629C2.95947 12.7992 2.57803 12.2587 2.389 11.9549C2.30214 11.8153 2.25917 11.7308 2.2412 11.6926L2.21879 11.5986L2.13609 11.4632C0.67256 9.0682 0.860885 7.00825 1.3855 5.53574C1.65293 4.78512 2.01245 4.17866 2.30537 3.76069C2.45114 3.55268 2.57837 3.39428 2.66593 3.29119C2.70965 3.23973 2.74326 3.20231 2.76408 3.17965C2.77448 3.16833 2.78166 3.16072 2.78529 3.15691C2.78618 3.15597 2.78686 3.15526 2.78732 3.15479L2.79532 3.14667L2.8052 3.13604C3.96114 1.89233 5.10525 1.31755 6.14676 1.10437C7.19944 0.888898 8.22366 1.02772 9.14808 1.33315C10.0753 1.63949 10.8733 2.10445 11.4454 2.50054C11.7293 2.69712 11.952 2.87291 12.1011 2.99708C12.1755 3.05906 12.2312 3.10785 12.2666 3.13954C12.2843 3.15538 12.2969 3.16691 12.3042 3.17365L12.3105 3.17949Z" stroke="#C5A17C" stroke-width="2"/>
</svg>
