<svg width="165" height="48" viewBox="0 0 165 48" fill="none" xmlns="http://www.w3.org/2000/svg">
<path d="M13.3594 15.1562C13.0052 15.4219 12.6146 15.6823 12.1875 15.9375C11.7604 16.1875 11.3099 16.4271 10.8359 16.6562C10.362 16.8802 9.86979 17.0859 9.35938 17.2734C8.85417 17.4609 8.34375 17.6224 7.82812 17.7578C7.31771 17.8984 6.8099 18.0052 6.30469 18.0781C5.80469 18.1562 5.32292 18.1953 4.85938 18.1953C4.41667 18.1953 4.02865 18.1484 3.69531 18.0547C3.36198 17.9661 3.07292 17.8438 2.82812 17.6875C2.58333 17.5312 2.3776 17.349 2.21094 17.1406C2.04948 16.9323 1.91927 16.7083 1.82031 16.4688C1.72135 16.2292 1.65104 15.9818 1.60938 15.7266C1.56771 15.4714 1.54688 15.2214 1.54688 14.9766C1.54688 14.6224 1.61719 14.2161 1.75781 13.7578C1.90365 13.2943 2.10156 12.8047 2.35156 12.2891C2.60156 11.7734 2.89844 11.2474 3.24219 10.7109C3.58594 10.1693 3.95833 9.64583 4.35938 9.14062C4.76042 8.63021 5.18229 8.15104 5.625 7.70312C6.06771 7.25 6.51302 6.85417 6.96094 6.51562C7.40885 6.17708 7.85156 5.91146 8.28906 5.71875C8.73177 5.52083 9.15104 5.42188 9.54688 5.42188C10.026 5.42188 10.4193 5.50521 10.7266 5.67188C11.0391 5.83333 11.2839 6.03125 11.4609 6.26562C11.638 6.49479 11.7604 6.73438 11.8281 6.98438C11.8958 7.23438 11.9297 7.44792 11.9297 7.625C11.9297 7.66667 11.9193 7.7474 11.8984 7.86719C11.8828 7.98698 11.8542 8.1276 11.8125 8.28906C11.7708 8.44531 11.7161 8.61198 11.6484 8.78906C11.5859 8.96094 11.5078 9.11979 11.4141 9.26562C11.3255 9.41146 11.2188 9.53125 11.0938 9.625C10.974 9.71875 10.8385 9.76562 10.6875 9.76562C10.651 9.76562 10.6016 9.74479 10.5391 9.70312C10.4766 9.66146 10.4141 9.60938 10.3516 9.54688C10.2891 9.47917 10.2344 9.40625 10.1875 9.32812C10.1458 9.24479 10.125 9.16406 10.125 9.08594C10.125 9.02865 10.1484 8.96094 10.1953 8.88281C10.2422 8.79948 10.2917 8.69792 10.3438 8.57812C10.401 8.45312 10.4531 8.30729 10.5 8.14062C10.5469 7.96875 10.5703 7.76823 10.5703 7.53906C10.5703 7.33073 10.4714 7.16406 10.2734 7.03906C10.0807 6.90885 9.82292 6.84375 9.5 6.84375C9.22917 6.84375 8.92708 6.92448 8.59375 7.08594C8.26562 7.2474 7.92188 7.46875 7.5625 7.75C7.20833 8.02604 6.84635 8.35156 6.47656 8.72656C6.10677 9.10156 5.75 9.50521 5.40625 9.9375C5.06771 10.3646 4.7474 10.8073 4.44531 11.2656C4.14323 11.724 3.88021 12.1771 3.65625 12.625C3.4375 13.0677 3.26302 13.4948 3.13281 13.9062C3.0026 14.3177 2.9375 14.6901 2.9375 15.0234C2.9375 15.4714 3.02083 15.8203 3.1875 16.0703C3.35938 16.3203 3.57292 16.5078 3.82812 16.6328C4.08333 16.7526 4.35938 16.8255 4.65625 16.8516C4.95312 16.8776 5.22917 16.8906 5.48438 16.8906C6.01562 16.8906 6.55469 16.8333 7.10156 16.7188C7.64844 16.6042 8.17708 16.4609 8.6875 16.2891C9.19792 16.1172 9.67448 15.9323 10.1172 15.7344C10.5651 15.5312 10.9557 15.3385 11.2891 15.1562C11.6068 14.9844 11.8698 14.8255 12.0781 14.6797C12.2917 14.5339 12.4766 14.4089 12.6328 14.3047C12.7943 14.2005 12.9453 14.1198 13.0859 14.0625C13.2318 14.0052 13.3958 13.9766 13.5781 13.9766C13.625 13.9766 13.6589 14.0026 13.6797 14.0547C13.7005 14.1016 13.7109 14.1641 13.7109 14.2422C13.7109 14.3151 13.7005 14.3984 13.6797 14.4922C13.6641 14.5807 13.6406 14.6693 13.6094 14.7578C13.5781 14.8411 13.5417 14.9193 13.5 14.9922C13.4583 15.0651 13.4115 15.1198 13.3594 15.1562ZM20.7422 10.4297C20.7422 10.7474 20.7005 11.1042 20.6172 11.5C20.5339 11.8958 20.4167 12.3047 20.2656 12.7266C20.1146 13.1484 19.9323 13.5677 19.7188 13.9844C19.5104 14.401 19.276 14.7891 19.0156 15.1484C18.7917 15.4609 18.5365 15.7474 18.25 16.0078C17.9688 16.2682 17.6641 16.4922 17.3359 16.6797C17.0078 16.8672 16.6615 17.013 16.2969 17.1172C15.9375 17.2214 15.5677 17.2734 15.1875 17.2734C15.0312 17.2734 14.8698 17.2109 14.7031 17.0859C14.5417 16.9609 14.3906 16.8021 14.25 16.6094C14.1146 16.4115 14.0026 16.1901 13.9141 15.9453C13.8255 15.7005 13.7812 15.4609 13.7812 15.2266C13.7812 14.8359 13.8151 14.4427 13.8828 14.0469C13.9557 13.651 14.0807 13.2526 14.2578 12.8516C14.4401 12.4453 14.6823 12.0339 14.9844 11.6172C15.2865 11.2005 15.6693 10.7734 16.1328 10.3359C16.2266 10.2474 16.3438 10.1562 16.4844 10.0625C16.6302 9.96354 16.7786 9.8724 16.9297 9.78906C17.0859 9.70052 17.2344 9.6224 17.375 9.55469C17.5208 9.48698 17.6406 9.4375 17.7344 9.40625C18.0104 9.30729 18.2943 9.22135 18.5859 9.14844C18.8776 9.07031 19.151 8.9974 19.4062 8.92969C19.3438 8.48698 19.2422 8.09896 19.1016 7.76562C18.9661 7.42708 18.7604 7.125 18.4844 6.85938C18.3646 6.74479 18.2214 6.64323 18.0547 6.55469C17.8932 6.46615 17.724 6.39323 17.5469 6.33594C17.3698 6.27865 17.1953 6.23698 17.0234 6.21094C16.8516 6.17969 16.6953 6.16146 16.5547 6.15625C16.487 6.15625 16.4062 6.16667 16.3125 6.1875C16.2188 6.20312 16.1224 6.22656 16.0234 6.25781C15.9297 6.28385 15.8359 6.3151 15.7422 6.35156C15.6536 6.38281 15.5781 6.41667 15.5156 6.45312C15.4375 6.5 15.3411 6.55208 15.2266 6.60938C15.1172 6.66146 15.026 6.6875 14.9531 6.6875C14.8802 6.6875 14.8177 6.64583 14.7656 6.5625C14.7135 6.47396 14.6875 6.39062 14.6875 6.3125C14.6875 6.24479 14.7109 6.16667 14.7578 6.07812C14.8099 5.98438 14.8698 5.89583 14.9375 5.8125C15.0104 5.72396 15.0885 5.64323 15.1719 5.57031C15.2552 5.4974 15.3307 5.44271 15.3984 5.40625C15.5859 5.30729 15.8047 5.22656 16.0547 5.16406C16.3099 5.10156 16.625 5.07031 17 5.07031C17.3854 5.08073 17.7604 5.13802 18.125 5.24219C18.4948 5.34115 18.8359 5.50521 19.1484 5.73438C19.4609 5.95833 19.737 6.2526 19.9766 6.61719C20.2161 6.97656 20.4036 7.42448 20.5391 7.96094C20.5755 8.11719 20.6068 8.29427 20.6328 8.49219C20.6589 8.6901 20.6797 8.89844 20.6953 9.11719C20.7109 9.33073 20.7214 9.54948 20.7266 9.77344C20.737 9.9974 20.7422 10.2161 20.7422 10.4297ZM19.5469 10.3984C19.5469 10.3411 19.5417 10.2865 19.5312 10.2344C19.526 10.1771 19.5234 10.1198 19.5234 10.0625C19.3984 10.0885 19.2396 10.125 19.0469 10.1719C18.8542 10.2135 18.6458 10.276 18.4219 10.3594C18.1979 10.4375 17.9635 10.5391 17.7188 10.6641C17.4792 10.7839 17.2448 10.9349 17.0156 11.1172C16.9844 11.1432 16.9219 11.2057 16.8281 11.3047C16.7344 11.3984 16.6302 11.5104 16.5156 11.6406C16.401 11.7656 16.2891 11.8932 16.1797 12.0234C16.0755 12.1536 15.9974 12.263 15.9453 12.3516C15.7422 12.6641 15.5807 12.9557 15.4609 13.2266C15.3464 13.4974 15.2578 13.7526 15.1953 13.9922C15.1328 14.2266 15.0911 14.4479 15.0703 14.6562C15.0547 14.8646 15.0469 15.0651 15.0469 15.2578C15.0469 15.5026 15.0703 15.7031 15.1172 15.8594C15.1641 16.0156 15.237 16.0938 15.3359 16.0938C15.4609 16.0938 15.5859 16.0885 15.7109 16.0781C15.8359 16.0625 15.9688 16.0312 16.1094 15.9844C16.2552 15.9323 16.4141 15.8542 16.5859 15.75C16.7578 15.6458 16.9531 15.5026 17.1719 15.3203C17.5208 15.0339 17.8411 14.6901 18.1328 14.2891C18.4245 13.8828 18.6745 13.4557 18.8828 13.0078C19.0911 12.5599 19.2526 12.1094 19.3672 11.6562C19.487 11.2031 19.5469 10.7839 19.5469 10.3984ZM31.5 14.0547C31.5 14.0911 31.4688 14.1562 31.4062 14.25C31.3438 14.3385 31.2786 14.4427 31.2109 14.5625C30.987 14.8177 30.7474 15.0755 30.4922 15.3359C30.237 15.5964 29.9688 15.849 29.6875 16.0938C29.4115 16.3333 29.1224 16.5599 28.8203 16.7734C28.5234 16.9818 28.2188 17.1641 27.9062 17.3203C27.5938 17.4766 27.2786 17.599 26.9609 17.6875C26.6484 17.776 26.3359 17.8177 26.0234 17.8125C25.5859 17.8125 25.2109 17.7422 24.8984 17.6016C24.5859 17.4609 24.3281 17.2604 24.125 17C23.9219 16.7448 23.7734 16.4349 23.6797 16.0703C23.5807 15.7005 23.5312 15.2891 23.5312 14.8359C23.5312 14.4609 23.5599 14.0755 23.6172 13.6797C23.6693 13.2786 23.7578 12.8776 23.8828 12.4766C24.013 12.0703 24.1823 11.6719 24.3906 11.2812C24.6042 10.8854 24.8646 10.5052 25.1719 10.1406C25.4688 9.79688 25.7734 9.54427 26.0859 9.38281C26.3984 9.22135 26.7031 9.14062 27 9.14062C27.1979 9.14062 27.375 9.17188 27.5312 9.23438C27.6927 9.29167 27.8281 9.3724 27.9375 9.47656C28.0521 9.58073 28.1406 9.70573 28.2031 9.85156C28.2656 9.99219 28.2995 10.1484 28.3047 10.3203C28.3151 10.5651 28.2891 10.8021 28.2266 11.0312C28.1693 11.2604 28.0755 11.4896 27.9453 11.7188C27.8151 11.9427 27.6484 12.1745 27.4453 12.4141C27.2422 12.6484 27.0026 12.8932 26.7266 13.1484C26.6224 13.2474 26.4922 13.3698 26.3359 13.5156C26.1797 13.6562 26.0104 13.8047 25.8281 13.9609C25.651 14.1172 25.4661 14.2734 25.2734 14.4297C25.0807 14.5859 24.8958 14.7266 24.7188 14.8516C24.7188 15.0651 24.7448 15.2812 24.7969 15.5C24.8542 15.7135 24.9401 15.9089 25.0547 16.0859C25.1745 16.2578 25.3281 16.401 25.5156 16.5156C25.7031 16.625 25.9323 16.6797 26.2031 16.6797C26.5781 16.6797 26.9557 16.6146 27.3359 16.4844C27.7161 16.349 28.0938 16.1641 28.4688 15.9297C28.8438 15.6953 29.2161 15.4167 29.5859 15.0938C29.9557 14.7708 30.3229 14.4193 30.6875 14.0391C30.7083 14.0182 30.737 13.9948 30.7734 13.9688C30.8099 13.9375 30.8516 13.9089 30.8984 13.8828C30.9453 13.8516 30.9922 13.8255 31.0391 13.8047C31.0911 13.7839 31.1406 13.7734 31.1875 13.7734C31.2031 13.7734 31.2266 13.7839 31.2578 13.8047C31.2943 13.8255 31.3307 13.8516 31.3672 13.8828C31.4036 13.9089 31.4349 13.9375 31.4609 13.9688C31.487 14 31.5 14.0286 31.5 14.0547ZM27.1562 10.7188C27.1458 10.5573 27.1042 10.4323 27.0312 10.3438C26.9583 10.2552 26.862 10.2109 26.7422 10.2109C26.5339 10.2109 26.2943 10.349 26.0234 10.625C25.7578 10.8958 25.5104 11.2917 25.2812 11.8125C25.1771 12.0521 25.0703 12.3359 24.9609 12.6641C24.8516 12.9922 24.7786 13.3385 24.7422 13.7031C25.013 13.5 25.2604 13.2865 25.4844 13.0625C25.7135 12.8385 25.9219 12.6328 26.1094 12.4453C26.2188 12.3359 26.3359 12.2057 26.4609 12.0547C26.5859 11.8984 26.7005 11.7396 26.8047 11.5781C26.9141 11.4167 27 11.2604 27.0625 11.1094C27.1302 10.9583 27.1615 10.8281 27.1562 10.7188ZM44.7656 11.9766C44.7083 12.1224 44.6068 12.3073 44.4609 12.5312C44.3203 12.7552 44.1458 13 43.9375 13.2656C43.7292 13.5312 43.4922 13.8099 43.2266 14.1016C42.9609 14.388 42.6745 14.6719 42.3672 14.9531C42.0651 15.2344 41.7474 15.5026 41.4141 15.7578C41.0807 16.013 40.7396 16.237 40.3906 16.4297C40.0469 16.6224 39.7005 16.776 39.3516 16.8906C39.0078 17.0052 38.6693 17.0625 38.3359 17.0625C38.1693 17.0625 38.0365 16.9974 37.9375 16.8672C37.8385 16.7318 37.763 16.5729 37.7109 16.3906C37.6589 16.2031 37.625 16.0104 37.6094 15.8125C37.5938 15.6146 37.5859 15.4479 37.5859 15.3125C37.5859 15.0573 37.6068 14.7526 37.6484 14.3984C37.6901 14.0391 37.7396 13.6693 37.7969 13.2891C37.8594 12.9036 37.9219 12.5234 37.9844 12.1484C38.0469 11.7682 38.099 11.4297 38.1406 11.1328C38.1875 10.8359 38.2135 10.5964 38.2188 10.4141C38.2292 10.2266 38.2109 10.1328 38.1641 10.1328C38.0026 10.1328 37.8438 10.2188 37.6875 10.3906C37.5365 10.5573 37.3802 10.7812 37.2188 11.0625C37.0573 11.3385 36.888 11.6589 36.7109 12.0234C36.5339 12.388 36.3385 12.7656 36.125 13.1562C35.9115 13.5417 35.6771 13.9297 35.4219 14.3203C35.1719 14.7057 34.8906 15.0625 34.5781 15.3906C34.2344 15.75 33.8542 16.0182 33.4375 16.1953C33.0208 16.3672 32.6094 16.4531 32.2031 16.4531C31.9583 16.4531 31.7344 16.4062 31.5312 16.3125C31.3333 16.2188 31.1641 16.0911 31.0234 15.9297C30.8828 15.7682 30.7734 15.5781 30.6953 15.3594C30.6172 15.1354 30.5781 14.8958 30.5781 14.6406C30.5781 14.349 30.651 14.1198 30.7969 13.9531C30.9427 13.7812 31.112 13.6953 31.3047 13.6953C31.4609 13.6953 31.5885 13.75 31.6875 13.8594C31.7917 13.9688 31.8594 14.125 31.8906 14.3281C31.9427 14.6562 32.0365 14.8932 32.1719 15.0391C32.3073 15.1849 32.4557 15.2578 32.6172 15.2578C32.9974 15.2578 33.4089 15.0547 33.8516 14.6484C34.2995 14.2422 34.7604 13.6198 35.2344 12.7812C35.4688 12.3698 35.6667 11.9974 35.8281 11.6641C35.9948 11.3255 36.1406 11.026 36.2656 10.7656C36.3958 10.5052 36.513 10.2812 36.6172 10.0938C36.7266 9.90625 36.8411 9.7526 36.9609 9.63281C37.3359 9.25781 37.8047 9.07031 38.3672 9.07031C38.4661 9.07031 38.5755 9.08594 38.6953 9.11719C38.8203 9.14844 38.9349 9.19531 39.0391 9.25781C39.1432 9.3151 39.2318 9.39062 39.3047 9.48438C39.3776 9.57292 39.4193 9.67708 39.4297 9.79688C39.4297 9.84375 39.4115 9.96615 39.375 10.1641C39.3438 10.3568 39.3021 10.5964 39.25 10.8828C39.1979 11.1693 39.1432 11.487 39.0859 11.8359C39.0286 12.1849 38.974 12.5365 38.9219 12.8906C38.8698 13.2396 38.8255 13.5781 38.7891 13.9062C38.7578 14.2292 38.7422 14.5104 38.7422 14.75C38.7422 14.9635 38.75 15.1354 38.7656 15.2656C38.7865 15.3906 38.8151 15.4896 38.8516 15.5625C38.8932 15.6302 38.9427 15.6771 39 15.7031C39.0625 15.724 39.1354 15.7344 39.2188 15.7344C39.4427 15.7344 39.7109 15.6536 40.0234 15.4922C40.3411 15.3255 40.6797 15.1042 41.0391 14.8281C41.4036 14.5469 41.7786 14.2214 42.1641 13.8516C42.5547 13.4818 42.9375 13.0911 43.3125 12.6797C43.4531 12.5286 43.5859 12.388 43.7109 12.2578C43.8359 12.1224 43.9505 12.0078 44.0547 11.9141C44.1589 11.8151 44.25 11.7396 44.3281 11.6875C44.4062 11.6302 44.4688 11.6016 44.5156 11.6016C44.5365 11.6016 44.5625 11.6146 44.5938 11.6406C44.625 11.6667 44.651 11.6979 44.6719 11.7344C44.6979 11.7708 44.7188 11.8125 44.7344 11.8594C44.7552 11.901 44.7656 11.9401 44.7656 11.9766ZM48.1562 10.7812C48.1562 10.7292 48.1354 10.6719 48.0938 10.6094C48.0573 10.5417 48.0078 10.4792 47.9453 10.4219C47.888 10.3594 47.8229 10.3073 47.75 10.2656C47.6771 10.224 47.6094 10.2031 47.5469 10.2031C47.3854 10.2031 47.2344 10.2292 47.0938 10.2812C46.9583 10.3333 46.8307 10.401 46.7109 10.4844C46.5911 10.5625 46.4792 10.6536 46.375 10.7578C46.276 10.862 46.1875 10.9661 46.1094 11.0703C45.9219 11.3099 45.7292 11.6042 45.5312 11.9531C45.3385 12.2969 45.1615 12.6589 45 13.0391C44.8438 13.4193 44.7135 13.7943 44.6094 14.1641C44.5104 14.5339 44.4609 14.862 44.4609 15.1484C44.4609 15.2943 44.526 15.4193 44.6562 15.5234C44.7865 15.6276 44.9609 15.6797 45.1797 15.6797C45.3047 15.6797 45.4531 15.625 45.625 15.5156C45.8021 15.401 45.9844 15.2526 46.1719 15.0703C46.3646 14.8828 46.5521 14.6719 46.7344 14.4375C46.9219 14.2031 47.0859 13.9609 47.2266 13.7109C47.4922 13.2422 47.7135 12.7708 47.8906 12.2969C48.0677 11.8177 48.1562 11.3125 48.1562 10.7812ZM55.1484 11.9844C55.1328 12.0312 55.0703 12.138 54.9609 12.3047C54.8516 12.4661 54.6979 12.6667 54.5 12.9062C54.3021 13.1458 54.0625 13.4115 53.7812 13.7031C53.5052 13.9896 53.1953 14.2786 52.8516 14.5703C52.4453 14.9089 52.0833 15.1901 51.7656 15.4141C51.4531 15.6328 51.1693 15.8073 50.9141 15.9375C50.6641 16.0625 50.4375 16.151 50.2344 16.2031C50.0365 16.25 49.8516 16.2734 49.6797 16.2734C49.4505 16.2734 49.2422 16.237 49.0547 16.1641C48.8724 16.0859 48.7135 15.9635 48.5781 15.7969C48.4427 15.6302 48.3281 15.4167 48.2344 15.1562C48.1406 14.8906 48.0677 14.5703 48.0156 14.1953H47.9375C47.7188 14.5286 47.4792 14.8594 47.2188 15.1875C46.9635 15.5104 46.6953 15.8021 46.4141 16.0625C46.138 16.3177 45.8516 16.526 45.5547 16.6875C45.263 16.849 44.974 16.9297 44.6875 16.9297C44.5365 16.9297 44.3776 16.9036 44.2109 16.8516C44.0443 16.7943 43.8906 16.7057 43.75 16.5859C43.6094 16.4661 43.4922 16.3151 43.3984 16.1328C43.3047 15.9453 43.2578 15.7214 43.2578 15.4609C43.2578 15.2318 43.2865 14.9714 43.3438 14.6797C43.401 14.3828 43.4792 14.0755 43.5781 13.7578C43.6771 13.4349 43.7891 13.112 43.9141 12.7891C44.0443 12.4609 44.1797 12.151 44.3203 11.8594C44.4661 11.5677 44.612 11.3047 44.7578 11.0703C44.9036 10.8359 45.0443 10.6458 45.1797 10.5C45.3359 10.3333 45.5182 10.1641 45.7266 9.99219C45.9401 9.82031 46.1745 9.66406 46.4297 9.52344C46.6849 9.38281 46.9583 9.26823 47.25 9.17969C47.5417 9.08594 47.849 9.03906 48.1719 9.03906C48.4323 9.03906 48.6276 9.125 48.7578 9.29688C48.888 9.46354 48.9792 9.71875 49.0312 10.0625C49.0365 10.0938 49.0547 10.1302 49.0859 10.1719C49.1224 10.2135 49.1589 10.2604 49.1953 10.3125C49.237 10.3646 49.2734 10.4193 49.3047 10.4766C49.3359 10.5286 49.3516 10.5833 49.3516 10.6406C49.3516 10.724 49.3333 10.8281 49.2969 10.9531C49.2604 11.0729 49.2188 11.2109 49.1719 11.3672C49.1302 11.5182 49.0911 11.6849 49.0547 11.8672C49.0182 12.0443 49 12.2318 49 12.4297C49 12.7005 49.0026 12.9896 49.0078 13.2969C49.013 13.6042 49.0417 13.888 49.0938 14.1484C49.151 14.4036 49.2422 14.6172 49.3672 14.7891C49.4974 14.9609 49.6849 15.0469 49.9297 15.0469C50.1797 15.0469 50.5182 14.9297 50.9453 14.6953C51.3724 14.4609 51.8464 14.1328 52.3672 13.7109C52.7005 13.4401 53.0156 13.1693 53.3125 12.8984C53.6094 12.6276 53.875 12.3854 54.1094 12.1719C54.3438 11.9583 54.5443 11.7839 54.7109 11.6484C54.8776 11.513 54.9974 11.4453 55.0703 11.4453C55.1589 11.4453 55.2135 11.4609 55.2344 11.4922C55.2552 11.5182 55.2656 11.5677 55.2656 11.6406C55.2656 11.651 55.2604 11.6745 55.25 11.7109C55.2396 11.7422 55.2292 11.776 55.2188 11.8125C55.2083 11.849 55.1953 11.8828 55.1797 11.9141C55.1641 11.9453 55.1536 11.9688 55.1484 11.9844ZM59.4844 13.0625C59.3333 13.1615 59.1224 13.2604 58.8516 13.3594C58.5859 13.4583 58.2917 13.5495 57.9688 13.6328C57.6458 13.7161 57.3099 13.7865 56.9609 13.8438C56.612 13.901 56.2812 13.9401 55.9688 13.9609C55.9479 14.0182 55.9297 14.1172 55.9141 14.2578C55.8984 14.3932 55.8854 14.5547 55.875 14.7422C55.8646 14.9245 55.8542 15.1198 55.8438 15.3281C55.8385 15.5365 55.8333 15.737 55.8281 15.9297C55.8229 16.1172 55.8177 16.2865 55.8125 16.4375C55.8125 16.5885 55.8125 16.6979 55.8125 16.7656C55.8125 16.8438 55.7891 16.9219 55.7422 17C55.7005 17.0833 55.6458 17.1562 55.5781 17.2188C55.5104 17.2812 55.4349 17.3333 55.3516 17.375C55.2682 17.4167 55.1849 17.4375 55.1016 17.4375C54.9922 17.4375 54.8984 17.4167 54.8203 17.375C54.7422 17.3385 54.6745 17.2943 54.6172 17.2422C54.5651 17.1901 54.526 17.138 54.5 17.0859C54.474 17.0339 54.4609 16.9948 54.4609 16.9688C54.4505 16.8594 54.4531 16.7161 54.4688 16.5391C54.4896 16.3568 54.5156 16.1589 54.5469 15.9453C54.5781 15.7318 54.612 15.5078 54.6484 15.2734C54.6901 15.0339 54.7266 14.7995 54.7578 14.5703C54.7943 14.3307 54.8229 14.0651 54.8438 13.7734C54.8698 13.4766 54.8906 13.1719 54.9062 12.8594C54.9219 12.5469 54.9323 12.237 54.9375 11.9297C54.9479 11.6172 54.9531 11.3229 54.9531 11.0469C54.9583 10.7708 54.9609 10.5234 54.9609 10.3047C54.9609 10.0807 54.9609 9.90104 54.9609 9.76562C54.9609 9.52083 55.013 9.3125 55.1172 9.14062C55.2214 8.96875 55.3958 8.88281 55.6406 8.88281C55.7083 8.88281 55.7812 8.90365 55.8594 8.94531C55.9427 8.98698 56.0182 9.03906 56.0859 9.10156C56.1536 9.15885 56.2109 9.22396 56.2578 9.29688C56.3047 9.36458 56.3281 9.42969 56.3281 9.49219C56.3281 9.7526 56.3125 10.026 56.2812 10.3125C56.2552 10.599 56.224 10.8776 56.1875 11.1484C56.151 11.4141 56.1172 11.6615 56.0859 11.8906C56.0599 12.1146 56.0469 12.2969 56.0469 12.4375C56.0469 12.5833 56.1276 12.6901 56.2891 12.7578C56.4505 12.8255 56.6536 12.8594 56.8984 12.8594C57.0911 12.8594 57.3047 12.8438 57.5391 12.8125C57.7734 12.776 58 12.7292 58.2188 12.6719C58.4375 12.6146 58.638 12.5443 58.8203 12.4609C59.0078 12.3776 59.1536 12.2839 59.2578 12.1797C59.3464 12.0911 59.4271 11.9792 59.5 11.8438C59.5781 11.7083 59.6328 11.5703 59.6641 11.4297C59.7057 11.2578 59.7396 11.0599 59.7656 10.8359C59.7917 10.612 59.8255 10.3854 59.8672 10.1562C59.9245 9.80729 60.0391 9.52865 60.2109 9.32031C60.388 9.11198 60.5938 9.00781 60.8281 9.00781C61.0312 9.00781 61.1875 9.07292 61.2969 9.20312C61.4062 9.33333 61.4609 9.48698 61.4609 9.66406C61.4609 9.72135 61.4375 9.83333 61.3906 10C61.349 10.1615 61.2943 10.3464 61.2266 10.5547C61.1641 10.763 61.0964 10.974 61.0234 11.1875C60.9557 11.401 60.8958 11.5833 60.8438 11.7344C60.8073 11.8438 60.7682 12.0052 60.7266 12.2188C60.6849 12.4271 60.6458 12.6562 60.6094 12.9062C60.5781 13.151 60.5495 13.3958 60.5234 13.6406C60.5026 13.8854 60.4922 14.0938 60.4922 14.2656C60.4922 14.7969 60.5547 15.1745 60.6797 15.3984C60.8099 15.6224 61.0052 15.7344 61.2656 15.7344C61.4531 15.7344 61.6562 15.6979 61.875 15.625C62.099 15.5521 62.3464 15.4297 62.6172 15.2578C62.8932 15.0807 63.1979 14.849 63.5312 14.5625C63.8646 14.276 64.2422 13.9219 64.6641 13.5C64.8672 13.2969 65.0651 13.0911 65.2578 12.8828C65.4505 12.6745 65.6302 12.4766 65.7969 12.2891C65.9688 12.1016 66.1224 11.9297 66.2578 11.7734C66.3932 11.612 66.5052 11.4792 66.5938 11.375C66.651 11.3073 66.7135 11.237 66.7812 11.1641C66.8542 11.0911 66.9219 11.0547 66.9844 11.0547C67.0729 11.0547 67.1484 11.0703 67.2109 11.1016C67.2786 11.1276 67.3125 11.1927 67.3125 11.2969C67.3125 11.4062 67.2552 11.5521 67.1406 11.7344C67.026 11.9167 66.8854 12.1224 66.7188 12.3516C66.6667 12.4245 66.5833 12.5312 66.4688 12.6719C66.3542 12.8125 66.2188 12.974 66.0625 13.1562C65.9115 13.3385 65.7448 13.5339 65.5625 13.7422C65.3802 13.9453 65.1953 14.1458 65.0078 14.3438C64.8255 14.5417 64.6458 14.7318 64.4688 14.9141C64.2969 15.0911 64.138 15.2448 63.9922 15.375C63.4661 15.8438 62.9453 16.2188 62.4297 16.5C61.9193 16.7812 61.3984 16.9219 60.8672 16.9219C60.3984 16.9219 60.0312 16.7396 59.7656 16.375C59.5 16.0104 59.3672 15.487 59.3672 14.8047C59.3672 14.6589 59.3698 14.5052 59.375 14.3438C59.3854 14.1823 59.3958 14.026 59.4062 13.875C59.4167 13.7188 59.4271 13.5703 59.4375 13.4297C59.4531 13.2891 59.4688 13.1667 59.4844 13.0625ZM72.5234 11.7812C72.5234 11.9479 72.5156 12.1068 72.5 12.2578C72.4844 12.4089 72.4609 12.5547 72.4297 12.6953C72.3984 12.8359 72.3568 12.9792 72.3047 13.125C72.2526 13.2656 72.1901 13.4115 72.1172 13.5625C72.0443 13.724 71.9115 13.9167 71.7188 14.1406C71.526 14.3646 71.2943 14.5964 71.0234 14.8359C70.7578 15.0755 70.4635 15.3125 70.1406 15.5469C69.8229 15.7812 69.5 15.9922 69.1719 16.1797C68.8438 16.3672 68.5208 16.5182 68.2031 16.6328C67.8906 16.7474 67.6068 16.8047 67.3516 16.8047C67.0026 16.8047 66.6979 16.7474 66.4375 16.6328C66.1771 16.513 65.9609 16.3594 65.7891 16.1719C65.6172 15.9792 65.487 15.7604 65.3984 15.5156C65.3151 15.2708 65.2734 15.0234 65.2734 14.7734C65.2734 14.6068 65.2943 14.4167 65.3359 14.2031C65.3776 13.9896 65.4323 13.7682 65.5 13.5391C65.5677 13.3099 65.6484 13.0755 65.7422 12.8359C65.8359 12.5964 65.9349 12.3672 66.0391 12.1484C66.1432 11.9297 66.25 11.7266 66.3594 11.5391C66.4688 11.3516 66.5755 11.1927 66.6797 11.0625C66.862 10.8333 67.0807 10.6094 67.3359 10.3906C67.5964 10.1719 67.8802 9.97917 68.1875 9.8125C68.4948 9.64062 68.8229 9.5026 69.1719 9.39844C69.526 9.29427 69.8906 9.24219 70.2656 9.24219C70.5469 9.24219 70.8229 9.3125 71.0938 9.45312C71.3646 9.58854 71.6042 9.77344 71.8125 10.0078C72.026 10.2422 72.1979 10.513 72.3281 10.8203C72.4583 11.1276 72.5234 11.4479 72.5234 11.7812ZM71.3047 12.0078C71.3047 11.4922 71.1562 11.0885 70.8594 10.7969C70.5677 10.5052 70.1458 10.3594 69.5938 10.3594C69.4062 10.3594 69.2161 10.4089 69.0234 10.5078C68.8307 10.6068 68.6458 10.7292 68.4688 10.875C68.2917 11.0208 68.1276 11.1771 67.9766 11.3438C67.8307 11.5052 67.7083 11.651 67.6094 11.7812C67.5104 11.9167 67.401 12.1016 67.2812 12.3359C67.1615 12.5651 67.0469 12.8125 66.9375 13.0781C66.8333 13.3385 66.7448 13.6016 66.6719 13.8672C66.6042 14.1276 66.5703 14.3568 66.5703 14.5547C66.5703 14.6745 66.5938 14.7969 66.6406 14.9219C66.6875 15.0417 66.7526 15.151 66.8359 15.25C66.9245 15.3438 67.0286 15.4219 67.1484 15.4844C67.2682 15.5469 67.401 15.5781 67.5469 15.5781C67.7031 15.5781 67.9036 15.5312 68.1484 15.4375C68.3984 15.3438 68.6615 15.2161 68.9375 15.0547C69.2188 14.888 69.5 14.6927 69.7812 14.4688C70.0625 14.2396 70.3151 13.9922 70.5391 13.7266C70.7682 13.4609 70.9531 13.1823 71.0938 12.8906C71.2344 12.599 71.3047 12.3047 71.3047 12.0078ZM88 14.0703C88 14.1484 87.9635 14.2526 87.8906 14.3828C87.8229 14.513 87.7292 14.6406 87.6094 14.7656C87.224 15.1615 86.8099 15.5312 86.3672 15.875C85.9297 16.2135 85.4766 16.5078 85.0078 16.7578C84.5391 17.0078 84.0599 17.2031 83.5703 17.3438C83.0807 17.4896 82.599 17.5625 82.125 17.5625C81.8177 17.5625 81.5312 17.5 81.2656 17.375C81.0052 17.2552 80.776 17.099 80.5781 16.9062C80.3854 16.7135 80.2344 16.5 80.125 16.2656C80.0156 16.026 79.9609 15.7917 79.9609 15.5625C79.9609 15.0938 80.013 14.6016 80.1172 14.0859C80.2214 13.5651 80.3828 13.0547 80.6016 12.5547C80.8203 12.0495 81.1016 11.5677 81.4453 11.1094C81.7891 10.6458 82.2005 10.237 82.6797 9.88281C83.0339 9.6224 83.3698 9.44792 83.6875 9.35938C84.0052 9.27083 84.2917 9.22656 84.5469 9.22656C84.6615 9.22656 84.7865 9.28125 84.9219 9.39062C85.0573 9.49479 85.1797 9.63021 85.2891 9.79688C85.4036 9.95833 85.4974 10.138 85.5703 10.3359C85.6484 10.5339 85.6875 10.724 85.6875 10.9062C85.6875 11.0104 85.6562 11.138 85.5938 11.2891C85.5312 11.4401 85.4479 11.5859 85.3438 11.7266C85.2396 11.8672 85.1224 11.987 84.9922 12.0859C84.862 12.1849 84.7318 12.2344 84.6016 12.2344C84.5443 12.2344 84.4922 12.224 84.4453 12.2031C84.3984 12.1771 84.375 12.1276 84.375 12.0547C84.375 11.9766 84.3932 11.8828 84.4297 11.7734C84.4661 11.6641 84.5052 11.5521 84.5469 11.4375C84.5938 11.3177 84.6354 11.2005 84.6719 11.0859C84.7083 10.9714 84.7266 10.8672 84.7266 10.7734C84.7266 10.7318 84.7188 10.6875 84.7031 10.6406C84.6927 10.5885 84.6719 10.5417 84.6406 10.5C84.6094 10.4531 84.5677 10.4167 84.5156 10.3906C84.4688 10.3594 84.4062 10.3438 84.3281 10.3438C84.2188 10.3438 84.1068 10.3542 83.9922 10.375C83.8828 10.3958 83.7604 10.4401 83.625 10.5078C83.4948 10.5755 83.3516 10.6693 83.1953 10.7891C83.0391 10.9089 82.8646 11.0651 82.6719 11.2578C82.5052 11.4349 82.3333 11.6745 82.1562 11.9766C81.9844 12.2734 81.8229 12.599 81.6719 12.9531C81.526 13.3073 81.4062 13.6719 81.3125 14.0469C81.2188 14.4219 81.1719 14.7734 81.1719 15.1016C81.1719 15.2891 81.2031 15.4661 81.2656 15.6328C81.3281 15.7995 81.4141 15.9453 81.5234 16.0703C81.638 16.1953 81.776 16.2943 81.9375 16.3672C82.099 16.4401 82.2812 16.4766 82.4844 16.4766C82.9375 16.4766 83.3776 16.4115 83.8047 16.2812C84.2318 16.1458 84.6432 15.9688 85.0391 15.75C85.4349 15.526 85.8125 15.2682 86.1719 14.9766C86.5365 14.6849 86.8828 14.3828 87.2109 14.0703C87.3047 13.9818 87.401 13.9062 87.5 13.8438C87.599 13.776 87.6771 13.7422 87.7344 13.7422C87.7917 13.7422 87.849 13.7734 87.9062 13.8359C87.9688 13.8932 88 13.9714 88 14.0703ZM108.43 12.0312C108.388 12.1354 108.302 12.2865 108.172 12.4844C108.047 12.6823 107.885 12.9089 107.688 13.1641C107.49 13.4141 107.263 13.6849 107.008 13.9766C106.753 14.2682 106.479 14.5573 106.188 14.8438C105.896 15.1302 105.589 15.4062 105.266 15.6719C104.948 15.9323 104.625 16.1641 104.297 16.3672C103.974 16.5703 103.648 16.7318 103.32 16.8516C102.997 16.9714 102.685 17.0312 102.383 17.0312C102.216 17.0312 102.052 17.0026 101.891 16.9453C101.729 16.8828 101.586 16.7891 101.461 16.6641C101.336 16.5391 101.234 16.3776 101.156 16.1797C101.083 15.9818 101.047 15.7422 101.047 15.4609C101.047 15.2682 101.062 15.0339 101.094 14.7578C101.125 14.4818 101.161 14.1875 101.203 13.875C101.25 13.5625 101.299 13.2448 101.352 12.9219C101.404 12.5938 101.451 12.2812 101.492 11.9844C101.539 11.6875 101.578 11.4167 101.609 11.1719C101.641 10.9219 101.656 10.7214 101.656 10.5703C101.656 10.4818 101.63 10.3984 101.578 10.3203C101.526 10.2422 101.487 10.2031 101.461 10.2031C101.31 10.2031 101.182 10.237 101.078 10.3047C100.979 10.3724 100.87 10.5052 100.75 10.7031C100.594 10.9688 100.427 11.2917 100.25 11.6719C100.073 12.0469 99.875 12.4453 99.6562 12.8672C99.4375 13.2891 99.1953 13.7161 98.9297 14.1484C98.6641 14.5755 98.3646 14.9766 98.0312 15.3516C97.8281 15.5755 97.612 15.7656 97.3828 15.9219C97.1536 16.0781 96.9245 16.2057 96.6953 16.3047C96.4661 16.3984 96.2448 16.4688 96.0312 16.5156C95.8177 16.5573 95.625 16.5781 95.4531 16.5781C95.1615 16.5781 94.8958 16.5391 94.6562 16.4609C94.4219 16.3828 94.2214 16.263 94.0547 16.1016C93.8932 15.9349 93.7682 15.7266 93.6797 15.4766C93.5911 15.2266 93.5469 14.9297 93.5469 14.5859C93.5469 14.4401 93.5703 14.3151 93.6172 14.2109C93.6589 14.1016 93.7135 14.0104 93.7812 13.9375C93.849 13.8646 93.9219 13.8099 94 13.7734C94.0833 13.737 94.1641 13.7188 94.2422 13.7188C94.3672 13.7188 94.4792 13.7578 94.5781 13.8359C94.6771 13.9089 94.7318 14.0312 94.7422 14.2031C94.7526 14.3854 94.776 14.5495 94.8125 14.6953C94.849 14.8411 94.9036 14.9661 94.9766 15.0703C95.0547 15.1693 95.1536 15.2474 95.2734 15.3047C95.3984 15.3568 95.5521 15.3828 95.7344 15.3828C95.9323 15.3828 96.1458 15.3333 96.375 15.2344C96.6094 15.1354 96.8464 14.9818 97.0859 14.7734C97.3307 14.5599 97.5781 14.2865 97.8281 13.9531C98.0781 13.6146 98.3203 13.2057 98.5547 12.7266C98.7943 12.237 99.0026 11.8151 99.1797 11.4609C99.362 11.1016 99.526 10.7917 99.6719 10.5312C99.8229 10.2708 99.9635 10.0495 100.094 9.86719C100.229 9.6849 100.372 9.52604 100.523 9.39062C100.586 9.33333 100.672 9.28125 100.781 9.23438C100.891 9.1875 101.003 9.14844 101.117 9.11719C101.237 9.08594 101.354 9.0625 101.469 9.04688C101.589 9.03125 101.688 9.02344 101.766 9.02344C101.896 9.02344 102.026 9.05469 102.156 9.11719C102.286 9.17448 102.404 9.26042 102.508 9.375C102.612 9.48438 102.698 9.61979 102.766 9.78125C102.833 9.94271 102.875 10.1276 102.891 10.3359C102.891 10.3828 102.875 10.487 102.844 10.6484C102.818 10.8047 102.784 11 102.742 11.2344C102.706 11.4635 102.661 11.7214 102.609 12.0078C102.562 12.2891 102.518 12.5781 102.477 12.875C102.44 13.1667 102.406 13.4583 102.375 13.75C102.349 14.0365 102.336 14.2995 102.336 14.5391C102.336 14.8516 102.365 15.0911 102.422 15.2578C102.479 15.4193 102.547 15.5365 102.625 15.6094C102.708 15.6823 102.794 15.724 102.883 15.7344C102.971 15.7396 103.049 15.7422 103.117 15.7422C103.341 15.7422 103.599 15.6641 103.891 15.5078C104.182 15.3464 104.492 15.1302 104.82 14.8594C105.154 14.5833 105.503 14.263 105.867 13.8984C106.232 13.5339 106.602 13.1458 106.977 12.7344C107.117 12.5833 107.25 12.4427 107.375 12.3125C107.5 12.1771 107.615 12.0625 107.719 11.9688C107.823 11.8698 107.914 11.7943 107.992 11.7422C108.07 11.6849 108.133 11.6562 108.18 11.6562C108.201 11.6562 108.227 11.6693 108.258 11.6953C108.289 11.7214 108.315 11.7526 108.336 11.7891C108.362 11.8255 108.383 11.8672 108.398 11.9141C108.419 11.9557 108.43 11.9948 108.43 12.0312ZM116.555 11.9844C116.555 11.7188 116.51 11.487 116.422 11.2891C116.333 11.0859 116.253 10.9245 116.18 10.8047C116.091 10.6641 115.982 10.5417 115.852 10.4375C115.727 10.3281 115.596 10.2734 115.461 10.2734C115.096 10.2734 114.745 10.4583 114.406 10.8281C114.24 11.0104 114.076 11.2188 113.914 11.4531C113.758 11.6875 113.617 11.9427 113.492 12.2188C113.393 12.4375 113.294 12.6771 113.195 12.9375C113.096 13.1979 113.005 13.4609 112.922 13.7266C112.844 13.9922 112.779 14.2552 112.727 14.5156C112.68 14.776 112.656 15.0182 112.656 15.2422C112.656 15.3411 112.677 15.4375 112.719 15.5312C112.766 15.6198 112.828 15.7005 112.906 15.7734C112.99 15.8411 113.091 15.8958 113.211 15.9375C113.336 15.9792 113.477 16 113.633 16C113.747 16 113.891 15.9661 114.062 15.8984C114.24 15.8307 114.419 15.7474 114.602 15.6484C114.784 15.5443 114.956 15.4349 115.117 15.3203C115.284 15.2057 115.411 15.1042 115.5 15.0156C115.677 14.8229 115.831 14.625 115.961 14.4219C116.096 14.2188 116.208 13.9974 116.297 13.7578C116.385 13.5182 116.451 13.2552 116.492 12.9688C116.534 12.6771 116.555 12.349 116.555 11.9844ZM117.836 12.1719C117.805 12.4323 117.773 12.6875 117.742 12.9375C117.711 13.1823 117.669 13.4245 117.617 13.6641C117.57 13.8984 117.505 14.1302 117.422 14.3594C117.344 14.5833 117.242 14.8021 117.117 15.0156C116.992 15.1771 116.839 15.3385 116.656 15.5C116.479 15.6615 116.281 15.8203 116.062 15.9766C115.849 16.1276 115.622 16.2708 115.383 16.4062C115.143 16.5417 114.904 16.6589 114.664 16.7578C114.424 16.8568 114.188 16.9349 113.953 16.9922C113.724 17.0495 113.51 17.0781 113.312 17.0781C112.724 17.0781 112.284 16.9036 111.992 16.5547C111.706 16.2057 111.562 15.7344 111.562 15.1406C111.562 14.9792 111.57 14.8047 111.586 14.6172C111.607 14.4245 111.635 14.2318 111.672 14.0391C111.714 13.8464 111.76 13.6641 111.812 13.4922C111.87 13.3151 111.935 13.1589 112.008 13.0234C111.872 13.0964 111.716 13.1589 111.539 13.2109C111.362 13.2578 111.18 13.2995 110.992 13.3359C110.81 13.3724 110.625 13.4062 110.438 13.4375C110.255 13.4635 110.089 13.4896 109.938 13.5156C109.786 13.5417 109.659 13.5729 109.555 13.6094C109.451 13.6406 109.383 13.6771 109.352 13.7188C109.32 13.7656 109.284 13.849 109.242 13.9688C109.206 14.0833 109.169 14.2109 109.133 14.3516C109.096 14.4922 109.062 14.6354 109.031 14.7812C109.005 14.9219 108.984 15.0391 108.969 15.1328C108.938 15.3411 108.909 15.6016 108.883 15.9141C108.857 16.2214 108.844 16.5495 108.844 16.8984C108.844 16.9714 108.812 17.0495 108.75 17.1328C108.688 17.2161 108.612 17.2943 108.523 17.3672C108.435 17.4401 108.339 17.5 108.234 17.5469C108.135 17.599 108.044 17.625 107.961 17.625C107.872 17.625 107.799 17.6016 107.742 17.5547C107.685 17.5078 107.638 17.4479 107.602 17.375C107.565 17.3073 107.539 17.2318 107.523 17.1484C107.508 17.0703 107.5 16.9974 107.5 16.9297C107.5 16.7943 107.505 16.6589 107.516 16.5234C107.531 16.388 107.549 16.2448 107.57 16.0938C107.596 15.9427 107.625 15.7812 107.656 15.6094C107.693 15.4323 107.734 15.237 107.781 15.0234C107.807 14.8776 107.839 14.7161 107.875 14.5391C107.911 14.362 107.948 14.1875 107.984 14.0156C108.021 13.8438 108.055 13.6823 108.086 13.5312C108.122 13.375 108.154 13.2422 108.18 13.1328C108.216 12.9557 108.25 12.7917 108.281 12.6406C108.312 12.4844 108.344 12.3281 108.375 12.1719C108.406 12.0104 108.438 11.8464 108.469 11.6797C108.505 11.5078 108.542 11.3177 108.578 11.1094C108.604 10.9479 108.633 10.7656 108.664 10.5625C108.695 10.3542 108.727 10.1484 108.758 9.94531C108.789 9.74219 108.82 9.55208 108.852 9.375C108.888 9.19271 108.927 9.04688 108.969 8.9375C108.99 8.86979 109.026 8.80729 109.078 8.75C109.13 8.6875 109.188 8.63281 109.25 8.58594C109.318 8.53906 109.388 8.5026 109.461 8.47656C109.534 8.45052 109.602 8.4375 109.664 8.4375C110.039 8.4375 110.227 8.64583 110.227 9.0625C110.227 9.32292 110.169 9.625 110.055 9.96875C109.93 10.3646 109.831 10.6849 109.758 10.9297C109.69 11.1693 109.638 11.3646 109.602 11.5156C109.57 11.6615 109.549 11.7812 109.539 11.875C109.529 11.9635 109.523 12.0521 109.523 12.1406C109.523 12.3438 109.625 12.4453 109.828 12.4453C110.021 12.4453 110.182 12.4401 110.312 12.4297C110.443 12.4193 110.555 12.4062 110.648 12.3906C110.747 12.375 110.833 12.3594 110.906 12.3438C110.984 12.3281 111.065 12.3125 111.148 12.2969C111.237 12.2812 111.331 12.2578 111.43 12.2266C111.534 12.1953 111.635 12.1589 111.734 12.1172C111.833 12.0703 111.927 12.0208 112.016 11.9688C112.109 11.9167 112.19 11.8646 112.258 11.8125C112.341 11.7448 112.44 11.6458 112.555 11.5156C112.674 11.3854 112.786 11.2526 112.891 11.1172C113 10.9818 113.094 10.8568 113.172 10.7422C113.255 10.6224 113.307 10.5417 113.328 10.5C113.458 10.3125 113.596 10.1302 113.742 9.95312C113.893 9.77604 114.06 9.61719 114.242 9.47656C114.43 9.33594 114.641 9.22396 114.875 9.14062C115.109 9.05208 115.38 9.00781 115.688 9.00781C115.818 9.00781 115.938 9.03646 116.047 9.09375C116.156 9.14583 116.26 9.21615 116.359 9.30469C116.458 9.38802 116.555 9.48177 116.648 9.58594C116.742 9.6901 116.839 9.79167 116.938 9.89062C117.073 10.0469 117.195 10.2214 117.305 10.4141C117.419 10.6016 117.516 10.7969 117.594 11C117.672 11.1979 117.732 11.3984 117.773 11.6016C117.815 11.8047 117.836 11.9948 117.836 12.1719ZM121.672 7.57812C121.599 7.51562 121.534 7.46354 121.477 7.42188C121.424 7.38021 121.378 7.34115 121.336 7.30469C121.294 7.26823 121.255 7.23438 121.219 7.20312C121.182 7.16667 121.146 7.1276 121.109 7.08594C121.083 7.0599 121.06 7.02083 121.039 6.96875C121.018 6.91667 121 6.86719 120.984 6.82031C120.969 6.76823 120.956 6.72135 120.945 6.67969C120.94 6.63802 120.938 6.61198 120.938 6.60156C120.938 6.4349 120.982 6.28385 121.07 6.14844C121.159 6.01302 121.279 5.92188 121.43 5.875C121.466 5.86458 121.516 5.85156 121.578 5.83594C121.646 5.82031 121.716 5.80729 121.789 5.79688C121.862 5.78125 121.938 5.76823 122.016 5.75781C122.094 5.7474 122.164 5.73958 122.227 5.73438C122.768 5.69271 123.281 5.63281 123.766 5.55469C124.25 5.47135 124.721 5.34896 125.18 5.1875C125.258 5.16146 125.333 5.13281 125.406 5.10156C125.484 5.0651 125.562 5.04688 125.641 5.04688C125.693 5.04688 125.747 5.04688 125.805 5.04688C125.862 5.04688 125.914 5.05469 125.961 5.07031C126.008 5.08594 126.047 5.11198 126.078 5.14844C126.109 5.17969 126.125 5.22917 126.125 5.29688C126.125 5.36979 126.102 5.44792 126.055 5.53125C126.013 5.61458 125.956 5.69531 125.883 5.77344C125.81 5.85156 125.727 5.92448 125.633 5.99219C125.539 6.05469 125.44 6.10417 125.336 6.14062C125.284 6.16146 125.177 6.19271 125.016 6.23438C124.854 6.27083 124.669 6.3099 124.461 6.35156C124.258 6.38802 124.044 6.42448 123.82 6.46094C123.602 6.4974 123.406 6.52083 123.234 6.53125C123.047 6.54688 122.898 6.5625 122.789 6.57812C122.68 6.58854 122.594 6.60156 122.531 6.61719C122.474 6.63281 122.432 6.65365 122.406 6.67969C122.385 6.70573 122.37 6.73698 122.359 6.77344C122.688 7.02344 122.99 7.28385 123.266 7.55469C123.542 7.82552 123.789 8.10156 124.008 8.38281C124.227 8.66406 124.411 8.94531 124.562 9.22656C124.719 9.50781 124.841 9.78385 124.93 10.0547C124.987 10.2318 125.034 10.3984 125.07 10.5547C125.107 10.7057 125.133 10.8568 125.148 11.0078C125.169 11.1536 125.182 11.3047 125.188 11.4609C125.198 11.612 125.203 11.776 125.203 11.9531C125.203 12.224 125.172 12.5052 125.109 12.7969C125.047 13.0885 124.958 13.3776 124.844 13.6641C124.734 13.9505 124.602 14.2266 124.445 14.4922C124.294 14.7578 124.13 15 123.953 15.2188C123.74 15.4792 123.51 15.7214 123.266 15.9453C123.021 16.1693 122.768 16.3646 122.508 16.5312C122.253 16.6927 121.992 16.8203 121.727 16.9141C121.461 17.0078 121.201 17.0547 120.945 17.0547C120.773 17.0547 120.596 17.0052 120.414 16.9062C120.232 16.8073 120.057 16.6771 119.891 16.5156C119.729 16.349 119.583 16.1589 119.453 15.9453C119.328 15.7266 119.237 15.5 119.18 15.2656C119.112 14.9896 119.068 14.7422 119.047 14.5234C119.026 14.2995 119.016 14.0677 119.016 13.8281C119.016 13.4948 119.073 13.1432 119.188 12.7734C119.307 12.3984 119.474 12.0365 119.688 11.6875C119.906 11.3385 120.169 11.0156 120.477 10.7188C120.789 10.4167 121.141 10.1719 121.531 9.98438C121.812 9.84896 122.109 9.73698 122.422 9.64844C122.734 9.5599 123.055 9.5026 123.383 9.47656C123.159 9.08073 122.893 8.72656 122.586 8.41406C122.279 8.10156 121.974 7.82292 121.672 7.57812ZM124 12.0547C124 11.5495 123.971 11.1615 123.914 10.8906C123.862 10.6146 123.779 10.4766 123.664 10.4766C123.607 10.4766 123.531 10.4792 123.438 10.4844C123.344 10.4844 123.24 10.4922 123.125 10.5078C123.01 10.5234 122.891 10.5469 122.766 10.5781C122.641 10.6042 122.516 10.6432 122.391 10.6953C122.109 10.8099 121.836 10.9792 121.57 11.2031C121.31 11.4219 121.078 11.6771 120.875 11.9688C120.672 12.2604 120.508 12.5807 120.383 12.9297C120.263 13.2734 120.203 13.6276 120.203 13.9922C120.203 14.263 120.229 14.5156 120.281 14.75C120.333 14.9792 120.404 15.1797 120.492 15.3516C120.586 15.5234 120.695 15.6589 120.82 15.7578C120.951 15.8516 121.091 15.8984 121.242 15.8984C121.372 15.8984 121.523 15.8542 121.695 15.7656C121.872 15.6771 122.047 15.5677 122.219 15.4375C122.396 15.3073 122.56 15.1667 122.711 15.0156C122.867 14.8594 122.99 14.7188 123.078 14.5938C123.193 14.4427 123.305 14.263 123.414 14.0547C123.523 13.8464 123.62 13.6302 123.703 13.4062C123.792 13.1771 123.862 12.9453 123.914 12.7109C123.971 12.4766 124 12.2578 124 12.0547ZM137.547 11.4688C137.547 11.6198 137.503 11.7708 137.414 11.9219C137.331 12.0729 137.221 12.2135 137.086 12.3438C136.961 12.4635 136.81 12.5807 136.633 12.6953C136.456 12.8099 136.26 12.9115 136.047 13C135.839 13.0833 135.617 13.151 135.383 13.2031C135.154 13.2552 134.919 13.2812 134.68 13.2812C134.404 13.2812 134.161 13.2552 133.953 13.2031C133.745 13.1458 133.568 13.0859 133.422 13.0234C133.276 12.9609 133.159 12.9036 133.07 12.8516C132.987 12.7943 132.93 12.7656 132.898 12.7656C132.831 12.7656 132.786 12.7839 132.766 12.8203C132.745 12.8568 132.732 12.888 132.727 12.9141C132.711 13.0391 132.695 13.1797 132.68 13.3359C132.669 13.487 132.641 13.651 132.594 13.8281C132.552 14 132.487 14.1875 132.398 14.3906C132.31 14.5885 132.18 14.7969 132.008 15.0156C131.888 15.1771 131.737 15.3385 131.555 15.5C131.378 15.6615 131.182 15.8203 130.969 15.9766C130.755 16.1276 130.529 16.2708 130.289 16.4062C130.049 16.5417 129.807 16.6589 129.562 16.7578C129.323 16.8568 129.086 16.9349 128.852 16.9922C128.622 17.0495 128.406 17.0781 128.203 17.0781C127.854 17.0781 127.565 17.0182 127.336 16.8984C127.107 16.7786 126.924 16.6172 126.789 16.4141C126.659 16.2109 126.565 15.974 126.508 15.7031C126.456 15.4323 126.43 15.1432 126.43 14.8359C126.43 14.5234 126.464 14.2109 126.531 13.8984C126.604 13.5807 126.698 13.2682 126.812 12.9609C126.932 12.6536 127.065 12.3542 127.211 12.0625C127.362 11.7656 127.513 11.4792 127.664 11.2031C128.055 10.4896 128.497 9.94531 128.992 9.57031C129.492 9.1901 130.018 9 130.57 9C130.852 9 131.133 9.0625 131.414 9.1875C131.695 9.3125 131.927 9.49219 132.109 9.72656C132.161 9.78906 132.219 9.89583 132.281 10.0469C132.349 10.1979 132.411 10.3516 132.469 10.5078C132.531 10.6641 132.586 10.8073 132.633 10.9375C132.685 11.0677 132.721 11.1458 132.742 11.1719C132.857 11.3177 132.99 11.4609 133.141 11.6016C133.292 11.737 133.461 11.8594 133.648 11.9688C133.836 12.0781 134.036 12.1667 134.25 12.2344C134.469 12.2969 134.698 12.3281 134.938 12.3281C135.25 12.3281 135.578 12.2526 135.922 12.1016C136.271 11.9505 136.589 11.7448 136.875 11.4844C136.964 11.4062 137.042 11.3411 137.109 11.2891C137.177 11.2318 137.245 11.2031 137.312 11.2031C137.339 11.2031 137.365 11.2135 137.391 11.2344C137.417 11.2552 137.44 11.2812 137.461 11.3125C137.487 11.3385 137.508 11.3672 137.523 11.3984C137.539 11.4297 137.547 11.4531 137.547 11.4688ZM131.422 11.9062C131.422 11.6979 131.406 11.5443 131.375 11.4453C131.344 11.3411 131.302 11.2578 131.25 11.1953C131.198 11.1328 131.138 11.0703 131.07 11.0078C131.003 10.9453 130.932 10.8464 130.859 10.7109C130.781 10.5651 130.711 10.4583 130.648 10.3906C130.591 10.3229 130.49 10.2891 130.344 10.2891C129.979 10.2891 129.63 10.4714 129.297 10.8359C129.13 11.0182 128.971 11.2266 128.82 11.4609C128.669 11.6901 128.529 11.9453 128.398 12.2266C128.294 12.4453 128.193 12.6849 128.094 12.9453C127.995 13.2005 127.906 13.4609 127.828 13.7266C127.75 13.9922 127.685 14.2552 127.633 14.5156C127.586 14.7708 127.562 15.0104 127.562 15.2344C127.562 15.3281 127.583 15.4193 127.625 15.5078C127.667 15.5964 127.729 15.6745 127.812 15.7422C127.896 15.8099 127.995 15.8646 128.109 15.9062C128.229 15.9479 128.367 15.9688 128.523 15.9688C128.638 15.9688 128.781 15.9349 128.953 15.8672C129.13 15.7995 129.31 15.7161 129.492 15.6172C129.674 15.5182 129.844 15.4141 130 15.3047C130.161 15.1901 130.286 15.0885 130.375 15C130.625 14.7344 130.82 14.4922 130.961 14.2734C131.102 14.0547 131.206 13.8333 131.273 13.6094C131.341 13.3802 131.383 13.1328 131.398 12.8672C131.414 12.5964 131.422 12.276 131.422 11.9062ZM141.75 12.9609C141.75 13.6693 141.646 14.2969 141.438 14.8438C141.229 15.3854 140.964 15.8438 140.641 16.2188C140.318 16.5885 139.961 16.8672 139.57 17.0547C139.185 17.2474 138.81 17.3438 138.445 17.3438C138.367 17.3438 138.255 17.3333 138.109 17.3125C137.964 17.2969 137.805 17.2526 137.633 17.1797C137.461 17.112 137.284 17.0052 137.102 16.8594C136.924 16.7135 136.763 16.513 136.617 16.2578C136.471 15.9974 136.352 15.6771 136.258 15.2969C136.164 14.9115 136.117 14.4427 136.117 13.8906C136.117 13.0625 136.188 12.2552 136.328 11.4688C136.474 10.6823 136.667 9.95573 136.906 9.28906C137.146 8.6224 137.419 8.02865 137.727 7.50781C138.034 6.98698 138.352 6.57812 138.68 6.28125C138.966 6.01562 139.26 5.80208 139.562 5.64062C139.865 5.47917 140.19 5.39844 140.539 5.39844C140.742 5.39844 140.938 5.42708 141.125 5.48438C141.318 5.54167 141.484 5.63021 141.625 5.75C141.771 5.86979 141.885 6.02604 141.969 6.21875C142.057 6.40625 142.102 6.63281 142.102 6.89844C142.102 7.32031 141.917 7.84115 141.547 8.46094C141.182 9.07552 140.602 9.7526 139.805 10.4922C139.852 10.4922 139.911 10.4896 139.984 10.4844C140.062 10.4792 140.143 10.4792 140.227 10.4844C140.315 10.4896 140.404 10.5052 140.492 10.5312C140.581 10.5521 140.664 10.5885 140.742 10.6406C140.872 10.7292 140.977 10.8177 141.055 10.9062C141.133 10.9948 141.195 11.0781 141.242 11.1562C141.289 11.2292 141.326 11.2917 141.352 11.3438C141.378 11.3958 141.404 11.4323 141.43 11.4531C141.732 11.6823 142.057 11.849 142.406 11.9531C142.755 12.0573 143.089 12.1094 143.406 12.1094C143.656 12.1094 143.888 12.0859 144.102 12.0391C144.315 11.987 144.513 11.9219 144.695 11.8438C144.883 11.7604 145.055 11.6667 145.211 11.5625C145.367 11.4531 145.516 11.3411 145.656 11.2266C145.76 11.1432 145.857 11.0703 145.945 11.0078C146.034 10.9401 146.107 10.9062 146.164 10.9062C146.211 10.9062 146.255 10.9297 146.297 10.9766C146.339 11.0182 146.359 11.0677 146.359 11.125C146.359 11.224 146.344 11.3464 146.312 11.4922C146.281 11.638 146.198 11.7812 146.062 11.9219C145.922 12.0729 145.747 12.224 145.539 12.375C145.336 12.526 145.107 12.6641 144.852 12.7891C144.596 12.9089 144.323 13.0078 144.031 13.0859C143.745 13.1589 143.445 13.1953 143.133 13.1953C142.909 13.1953 142.677 13.1771 142.438 13.1406C142.198 13.1042 141.969 13.0443 141.75 12.9609ZM140.938 7.09375C140.938 6.90104 140.901 6.73958 140.828 6.60938C140.755 6.47917 140.609 6.41406 140.391 6.41406C140.161 6.41406 139.919 6.51562 139.664 6.71875C139.409 6.92188 139.156 7.22396 138.906 7.625C138.661 8.02083 138.427 8.51562 138.203 9.10938C137.979 9.69792 137.781 10.3802 137.609 11.1562C137.854 10.9583 138.076 10.7734 138.273 10.6016C138.477 10.4297 138.672 10.2578 138.859 10.0859C139.047 9.90885 139.232 9.72656 139.414 9.53906C139.602 9.34635 139.802 9.1276 140.016 8.88281C140.141 8.74219 140.258 8.58854 140.367 8.42188C140.482 8.25521 140.581 8.09115 140.664 7.92969C140.747 7.76302 140.812 7.60677 140.859 7.46094C140.911 7.3151 140.938 7.19271 140.938 7.09375ZM140.617 13.1719C140.617 13.0156 140.602 12.8776 140.57 12.7578C140.544 12.6328 140.495 12.5104 140.422 12.3906C140.396 12.3438 140.362 12.3047 140.32 12.2734C140.279 12.2422 140.229 12.2083 140.172 12.1719C140.115 12.1302 140.049 12.0807 139.977 12.0234C139.904 11.9661 139.82 11.8906 139.727 11.7969C139.669 11.7396 139.62 11.6667 139.578 11.5781C139.536 11.4844 139.5 11.3958 139.469 11.3125C139.443 11.224 139.417 11.151 139.391 11.0938C139.365 11.0312 139.339 11 139.312 11C139.292 11 139.221 11.0469 139.102 11.1406C138.982 11.2344 138.833 11.3542 138.656 11.5C138.479 11.6458 138.281 11.8073 138.062 11.9844C137.849 12.1615 137.635 12.3333 137.422 12.5C137.411 12.5312 137.398 12.5911 137.383 12.6797C137.372 12.7682 137.359 12.875 137.344 13C137.333 13.1198 137.323 13.2552 137.312 13.4062C137.302 13.5521 137.297 13.7031 137.297 13.8594C137.297 14.3542 137.336 14.7578 137.414 15.0703C137.492 15.3828 137.591 15.6276 137.711 15.8047C137.831 15.9766 137.964 16.0938 138.109 16.1562C138.255 16.2188 138.396 16.25 138.531 16.25C138.844 16.25 139.128 16.1484 139.383 15.9453C139.643 15.7422 139.865 15.487 140.047 15.1797C140.234 14.8724 140.378 14.5417 140.477 14.1875C140.581 13.8281 140.633 13.4948 140.633 13.1875L140.617 13.1719ZM153.602 12.1484C153.424 12.2318 153.221 12.3151 152.992 12.3984C152.768 12.4818 152.534 12.5625 152.289 12.6406C152.044 12.7135 151.799 12.7786 151.555 12.8359C151.31 12.8932 151.083 12.9375 150.875 12.9688C150.682 13 150.586 13.0312 150.586 13.0625C150.586 13.3542 150.544 13.6667 150.461 14C150.383 14.3333 150.26 14.6719 150.094 15.0156C149.927 15.3594 149.711 15.6979 149.445 16.0312C149.18 16.3594 148.865 16.6615 148.5 16.9375C148.198 17.1615 147.859 17.3411 147.484 17.4766C147.109 17.6172 146.742 17.6875 146.383 17.6875C146.174 17.6875 145.99 17.638 145.828 17.5391C145.667 17.4453 145.529 17.3229 145.414 17.1719C145.305 17.0208 145.219 16.8542 145.156 16.6719C145.099 16.4844 145.07 16.3047 145.07 16.1328C145.07 15.8932 145.102 15.6068 145.164 15.2734C145.227 14.9349 145.299 14.5807 145.383 14.2109C145.466 13.8411 145.552 13.474 145.641 13.1094C145.729 12.7448 145.802 12.4141 145.859 12.1172C145.896 11.9089 145.932 11.6901 145.969 11.4609C146.01 11.2318 146.044 11.0078 146.07 10.7891C146.096 10.5651 146.117 10.3516 146.133 10.1484C146.154 9.94531 146.164 9.76302 146.164 9.60156C146.164 9.51823 146.185 9.42448 146.227 9.32031C146.273 9.21615 146.328 9.11979 146.391 9.03125C146.458 8.9375 146.531 8.85938 146.609 8.79688C146.693 8.73438 146.771 8.70312 146.844 8.70312C147 8.70312 147.125 8.72917 147.219 8.78125C147.318 8.82812 147.393 8.89583 147.445 8.98438C147.503 9.06771 147.542 9.16667 147.562 9.28125C147.583 9.39583 147.594 9.51562 147.594 9.64062C147.594 9.81771 147.576 10.013 147.539 10.2266C147.503 10.4349 147.461 10.6458 147.414 10.8594C147.367 11.0729 147.318 11.2812 147.266 11.4844C147.219 11.6823 147.182 11.8542 147.156 12C147.255 11.8646 147.398 11.763 147.586 11.6953C147.779 11.6224 148.003 11.5859 148.258 11.5859C148.341 11.5859 148.461 11.6016 148.617 11.6328C148.773 11.6641 148.94 11.7057 149.117 11.7578C149.294 11.8047 149.466 11.8594 149.633 11.9219C149.799 11.9844 149.938 12.0495 150.047 12.1172C150.078 12.138 150.193 12.1328 150.391 12.1016C150.729 12.0495 151.034 11.9974 151.305 11.9453C151.576 11.8932 151.823 11.8438 152.047 11.7969C152.276 11.7448 152.487 11.6927 152.68 11.6406C152.872 11.5885 153.06 11.5312 153.242 11.4688C153.352 11.4323 153.461 11.3958 153.57 11.3594C153.685 11.3229 153.789 11.2891 153.883 11.2578C153.982 11.2266 154.062 11.2005 154.125 11.1797C154.193 11.1589 154.232 11.1484 154.242 11.1484C154.299 11.1484 154.344 11.1771 154.375 11.2344C154.406 11.2865 154.422 11.3333 154.422 11.375C154.422 11.4271 154.393 11.4896 154.336 11.5625C154.284 11.6354 154.216 11.7083 154.133 11.7812C154.055 11.8542 153.966 11.9245 153.867 11.9922C153.773 12.0599 153.685 12.112 153.602 12.1484ZM149.414 13.5156C149.414 13.3542 149.367 13.2161 149.273 13.1016C149.185 12.9818 149.081 12.9219 148.961 12.9219C148.737 12.9219 148.534 12.9036 148.352 12.8672C148.169 12.8255 148.003 12.7734 147.852 12.7109C147.706 12.6484 147.57 12.5781 147.445 12.5C147.326 12.4167 147.216 12.3307 147.117 12.2422C147.102 12.2422 147.07 12.3099 147.023 12.4453C146.977 12.5755 146.919 12.75 146.852 12.9688C146.789 13.1823 146.721 13.4245 146.648 13.6953C146.581 13.9661 146.516 14.2396 146.453 14.5156C146.396 14.7865 146.346 15.0469 146.305 15.2969C146.268 15.5469 146.25 15.7578 146.25 15.9297C146.25 16.112 146.299 16.263 146.398 16.3828C146.503 16.5026 146.628 16.5625 146.773 16.5625C146.852 16.5625 146.943 16.5521 147.047 16.5312C147.156 16.5104 147.273 16.474 147.398 16.4219C147.523 16.3698 147.654 16.3021 147.789 16.2188C147.924 16.1354 148.062 16.0312 148.203 15.9062C148.615 15.5312 148.919 15.1328 149.117 14.7109C149.315 14.2839 149.414 13.8854 149.414 13.5156ZM153.648 13.7734C153.648 13.7526 153.635 13.7344 153.609 13.7188C153.589 13.6979 153.562 13.6719 153.531 13.6406C153.5 13.6094 153.471 13.5677 153.445 13.5156C153.424 13.4635 153.414 13.3906 153.414 13.2969C153.414 13.2135 153.438 13.138 153.484 13.0703C153.531 13.0026 153.581 12.9401 153.633 12.8828C153.69 12.8255 153.742 12.7734 153.789 12.7266C153.841 12.6797 153.872 12.6354 153.883 12.5938C153.971 12.0938 154.047 11.6224 154.109 11.1797C154.172 10.737 154.211 10.3672 154.227 10.0703C154.232 9.98177 154.232 9.89062 154.227 9.79688C154.227 9.70312 154.224 9.60938 154.219 9.51562C154.214 9.44792 154.208 9.38281 154.203 9.32031C154.203 9.25781 154.203 9.19792 154.203 9.14062C154.203 9.07812 154.227 9.00781 154.273 8.92969C154.32 8.85156 154.378 8.77865 154.445 8.71094C154.518 8.64323 154.596 8.58854 154.68 8.54688C154.768 8.5 154.854 8.47656 154.938 8.47656C155.01 8.47656 155.083 8.4974 155.156 8.53906C155.229 8.57552 155.294 8.63021 155.352 8.70312C155.409 8.77083 155.456 8.85677 155.492 8.96094C155.529 9.0599 155.547 9.17188 155.547 9.29688C155.547 9.39062 155.539 9.50521 155.523 9.64062C155.508 9.77604 155.487 9.92448 155.461 10.0859C155.435 10.2474 155.404 10.4167 155.367 10.5938C155.336 10.7708 155.305 10.9479 155.273 11.125C155.232 11.3698 155.19 11.6042 155.148 11.8281C155.112 12.0521 155.083 12.2448 155.062 12.4062C155.083 12.4531 155.102 12.4948 155.117 12.5312C155.138 12.5625 155.164 12.5885 155.195 12.6094C155.227 12.6302 155.266 12.6458 155.312 12.6562C155.365 12.6667 155.432 12.6719 155.516 12.6719C155.74 12.6719 155.977 12.6484 156.227 12.6016C156.477 12.5547 156.714 12.4948 156.938 12.4219C157.161 12.349 157.362 12.2734 157.539 12.1953C157.721 12.112 157.857 12.0339 157.945 11.9609C158.003 11.9141 158.065 11.8516 158.133 11.7734C158.206 11.6953 158.279 11.612 158.352 11.5234C158.424 11.4297 158.495 11.3385 158.562 11.25C158.635 11.1562 158.698 11.0755 158.75 11.0078C158.927 10.7839 159.128 10.5651 159.352 10.3516C159.576 10.138 159.823 9.95052 160.094 9.78906C160.365 9.6276 160.656 9.4974 160.969 9.39844C161.286 9.29948 161.63 9.25 162 9.25C162.281 9.25 162.557 9.32031 162.828 9.46094C163.099 9.59635 163.339 9.78125 163.547 10.0156C163.76 10.25 163.93 10.5208 164.055 10.8281C164.185 11.1302 164.25 11.4479 164.25 11.7812C164.25 12.1146 164.216 12.4193 164.148 12.6953C164.086 12.9661 163.984 13.2552 163.844 13.5625C163.766 13.724 163.63 13.9167 163.438 14.1406C163.245 14.3646 163.013 14.5964 162.742 14.8359C162.477 15.0755 162.185 15.3125 161.867 15.5469C161.549 15.7812 161.227 15.9922 160.898 16.1797C160.57 16.3672 160.247 16.5182 159.93 16.6328C159.617 16.7474 159.333 16.8047 159.078 16.8047C158.734 16.8047 158.44 16.7474 158.195 16.6328C157.951 16.513 157.75 16.3594 157.594 16.1719C157.438 15.9792 157.323 15.7604 157.25 15.5156C157.177 15.2708 157.141 15.0234 157.141 14.7734C157.141 14.5703 157.169 14.3255 157.227 14.0391C157.289 13.7474 157.393 13.4531 157.539 13.1562C157.341 13.2812 157.12 13.3802 156.875 13.4531C156.635 13.526 156.414 13.5911 156.211 13.6484C156.122 13.6745 156.023 13.6979 155.914 13.7188C155.805 13.7344 155.695 13.75 155.586 13.7656C155.482 13.7812 155.38 13.7969 155.281 13.8125C155.188 13.8281 155.107 13.8411 155.039 13.8516C154.935 13.8724 154.862 13.9141 154.82 13.9766C154.784 14.0339 154.755 14.1094 154.734 14.2031C154.714 14.2917 154.682 14.4089 154.641 14.5547C154.599 14.7005 154.557 14.8516 154.516 15.0078C154.469 15.1745 154.419 15.3464 154.367 15.5234C154.315 15.7005 154.268 15.8698 154.227 16.0312C154.19 16.1875 154.156 16.3333 154.125 16.4688C154.099 16.599 154.086 16.7005 154.086 16.7734C154.086 16.8411 154.057 16.9141 154 16.9922C153.948 17.0703 153.885 17.1432 153.812 17.2109C153.745 17.2839 153.674 17.3438 153.602 17.3906C153.534 17.4375 153.482 17.4609 153.445 17.4609C153.367 17.4609 153.292 17.4349 153.219 17.3828C153.151 17.3307 153.091 17.2708 153.039 17.2031C152.987 17.1354 152.945 17.0677 152.914 17C152.883 16.9271 152.867 16.8724 152.867 16.8359C152.867 16.7891 152.885 16.7057 152.922 16.5859C152.964 16.4661 153.005 16.3438 153.047 16.2188C153.073 16.1406 153.107 16.0339 153.148 15.8984C153.19 15.763 153.232 15.6146 153.273 15.4531C153.32 15.2865 153.365 15.1146 153.406 14.9375C153.453 14.7604 153.495 14.5938 153.531 14.4375C153.568 14.2812 153.596 14.1458 153.617 14.0312C153.638 13.9115 153.648 13.8255 153.648 13.7734ZM163.062 12.0078C163.062 11.487 162.911 11.0807 162.609 10.7891C162.312 10.4922 161.885 10.3438 161.328 10.3438C161.25 10.3438 161.154 10.375 161.039 10.4375C160.924 10.5 160.799 10.5807 160.664 10.6797C160.534 10.7734 160.401 10.8776 160.266 10.9922C160.135 11.1068 160.01 11.2188 159.891 11.3281C159.776 11.4375 159.677 11.5365 159.594 11.625C159.51 11.7135 159.453 11.776 159.422 11.8125C159.312 11.9427 159.198 12.1224 159.078 12.3516C158.964 12.5755 158.857 12.8177 158.758 13.0781C158.659 13.3385 158.576 13.6016 158.508 13.8672C158.445 14.1276 158.414 14.3568 158.414 14.5547C158.414 14.6745 158.43 14.7969 158.461 14.9219C158.497 15.0469 158.549 15.1615 158.617 15.2656C158.69 15.3646 158.781 15.4479 158.891 15.5156C159 15.5781 159.128 15.6094 159.273 15.6094C159.435 15.6094 159.641 15.5625 159.891 15.4688C160.141 15.375 160.404 15.2448 160.68 15.0781C160.961 14.9115 161.242 14.7135 161.523 14.4844C161.81 14.2552 162.065 14.0078 162.289 13.7422C162.518 13.4766 162.703 13.1979 162.844 12.9062C162.99 12.6094 163.062 12.3099 163.062 12.0078Z" fill="#A35330"/>
<path d="M83 48C74.3919 41.0543 73.9868 39.4891 73.9868 39.4891C71.455 35.6739 74.5944 32.7391 74.5944 32.7391C78.544 28.8261 83 32.7391 83 32.7391C83 32.7391 87.3547 28.8261 91.4056 32.7391C91.4056 32.7391 94.545 35.6739 92.0132 39.4891C92.0132 39.4891 91.6081 41.0543 83 48Z" fill="#A35330"/>
</svg>
