<svg width="37" height="37" viewBox="0 0 37 37" fill="none" xmlns="http://www.w3.org/2000/svg">
<path d="M16.9286 23.0394C16.9286 21.7638 17.0857 20.9134 17.2429 20.3465C17.4 19.7795 17.7143 19.0709 18.1857 18.7874C18.6571 18.3622 19.1286 18.0787 19.9143 17.7953C20.2286 17.6535 20.5429 17.3701 20.8571 17.0866C21.1714 16.8032 21.3286 16.5197 21.4857 16.0945C21.6429 15.811 21.8 15.3858 21.8 14.8189C21.8 14.252 21.6429 13.8268 21.3286 13.2598C21.0143 12.8346 20.7 12.5512 20.2286 12.4094C19.7571 12.2677 19.2857 12.126 18.5 12.126C18.0286 12.126 17.5571 12.2677 16.9286 12.4094C16.4571 12.5512 16.1429 12.8346 15.8286 13.2598C15.5143 13.685 15.3571 14.1102 15.3571 14.8189H13C13 13.9685 13.3143 12.9764 13.7857 12.2677C14.2571 11.5591 14.8857 10.9921 15.8286 10.5669C16.6143 10.2835 17.7143 10 18.6571 10C19.7571 10 20.7 10.1417 21.4857 10.5669C22.2714 10.9921 23.0571 11.4173 23.3714 12.2677C23.8429 12.9764 24 13.8268 24 14.6772C24 15.2441 23.8429 15.9528 23.6857 16.378C23.5286 16.8032 23.2143 17.2283 22.9 17.7953C22.5857 18.2205 22.1143 18.5039 21.3286 18.7874C20.8571 19.0709 20.3857 19.3543 19.9143 19.7795C19.6 20.063 19.4429 20.4882 19.2857 21.0551C19.1286 21.4803 19.1286 22.0472 19.1286 22.8976V23.0394H16.9286V23.0394ZM18.0286 28C17.5571 28 17.2429 27.8583 16.9286 27.5748C16.6143 27.2913 16.4571 27.0079 16.4571 26.5827C16.4571 26.1575 16.6143 25.874 16.9286 25.5906C17.2429 25.3071 17.5571 25.1654 18.0286 25.1654C18.5 25.1654 18.8143 25.3071 19.1286 25.5906C19.4429 25.874 19.6 26.1575 19.6 26.5827C19.6 26.8661 19.6 27.1496 19.4429 27.2913C19.2857 27.5748 19.1286 27.7165 18.8143 27.8583C18.8143 28 18.3429 28 18.0286 28Z" fill="#535353" fill-opacity="0.48"/>
<path d="M18.5 37C8.325 37 0 28.7164 0 18.5C0 8.28358 8.325 0 18.5 0C28.675 0 37 8.28358 37 18.5C37 28.7164 28.675 37 18.5 37ZM18.5 2.76119C9.91071 2.76119 2.775 9.80224 2.775 18.5C2.775 27.1978 9.91071 34.2388 18.5 34.2388C27.2214 34.2388 34.225 27.1978 34.225 18.5C34.225 9.80224 27.2214 2.76119 18.5 2.76119Z" fill="#200B06" fill-opacity="0.48"/>
</svg>
