<?xml version="1.0" encoding="utf-8"?>
<!-- Generator: Adobe Illustrator 26.1.0, SVG Export Plug-In . SVG Version: 6.00 Build 0)  -->
<svg version="1.1" id="Слой_1" xmlns="http://www.w3.org/2000/svg" xmlns:xlink="http://www.w3.org/1999/xlink" x="0px" y="0px"
	 viewBox="0 0 28 27" style="enable-background:new 0 0 28 27;" xml:space="preserve">
<style type="text/css">
	.st0{fill:#342E2E;}
</style>
<path class="st0" d="M13,16.3L13,16.3c0-0.9,0.1-1.5,0.2-1.9c0.1-0.4,0.3-0.9,0.6-1.1c0.3-0.3,0.6-0.5,1.1-0.7
	c0.2-0.1,0.4-0.3,0.6-0.5c0.2-0.2,0.3-0.4,0.4-0.7c0.1-0.2,0.2-0.5,0.2-0.9c0-0.4-0.1-0.7-0.3-1.1c-0.2-0.3-0.4-0.5-0.7-0.6
	c-0.3-0.1-0.6-0.2-1.1-0.2c-0.3,0-0.6,0.1-1,0.2c-0.3,0.1-0.5,0.3-0.7,0.6C12.1,9.7,12,10,12,10.5h-1.5c0-0.6,0.2-1.3,0.5-1.8
	c0.3-0.5,0.7-0.9,1.3-1.2c0.5-0.2,1.2-0.4,1.8-0.4c0.7,0,1.3,0.1,1.8,0.4s1,0.6,1.2,1.2c0.3,0.5,0.4,1.1,0.4,1.7
	c0,0.4-0.1,0.9-0.2,1.2s-0.3,0.6-0.5,1c-0.2,0.3-0.5,0.5-1,0.7c-0.3,0.2-0.6,0.4-0.9,0.7c-0.2,0.2-0.3,0.5-0.4,0.9
	c-0.1,0.3-0.1,0.7-0.1,1.3v0.1H13z M13.7,19.8c-0.3,0-0.5-0.1-0.7-0.3c-0.2-0.2-0.3-0.4-0.3-0.7s0.1-0.5,0.3-0.7
	c0.2-0.2,0.4-0.3,0.7-0.3s0.5,0.1,0.7,0.3c0.2,0.2,0.3,0.4,0.3,0.7c0,0.2,0,0.4-0.1,0.5c-0.1,0.2-0.2,0.3-0.4,0.4
	C14.2,19.8,13.9,19.8,13.7,19.8z"/>
<path class="st0" d="M14,26.9c-7.7,0-14-6-14-13.4c0-7.4,6.3-13.4,14-13.4c7.7,0,14,6,14,13.4C28,20.9,21.7,26.9,14,26.9z M14,2.1
	C7.5,2.1,2.1,7.2,2.1,13.5S7.5,24.9,14,24.9c6.6,0,11.9-5.1,11.9-11.4S20.6,2.1,14,2.1z"/>
</svg>
