<svg width="24" height="24" viewBox="0 0 24 24" fill="none" xmlns="http://www.w3.org/2000/svg">
<path d="M17.0571 11.8222C18.1714 10.5778 18.8571 8.88889 18.8571 7.11111C18.8571 3.2 15.7714 0 12 0C8.22857 0 5.14286 3.2 5.14286 7.11111C5.14286 11.0222 8.22857 14.2222 12 14.2222C13.3714 14.2222 14.5714 13.7778 15.6 13.1556C19.3714 14.5778 21.8571 18.1333 22.2 22.2222H1.71429C1.97143 19.4667 3.17143 16.8889 5.22857 15.0222C5.57143 14.6667 5.65714 14.1333 5.31429 13.7778C4.97143 13.4222 4.45714 13.3333 4.11429 13.6889C1.54286 16.0889 0 19.5556 0 23.1111C0 23.6444 0.342857 24 0.857143 24H23.1429C23.6571 24 24 23.6444 24 23.1111C24 18.2222 21.2571 13.8667 17.0571 11.8222ZM6.85714 7.11111C6.85714 4.17778 9.17143 1.77778 12 1.77778C14.8286 1.77778 17.1429 4.17778 17.1429 7.11111C17.1429 10.0444 14.8286 12.4444 12 12.4444C9.17143 12.4444 6.85714 10.0444 6.85714 7.11111Z" fill="#C5A17C"/>
</svg>
