<?xml version="1.0" encoding="utf-8"?>
<!-- Generator: Adobe Illustrator 26.1.0, SVG Export Plug-In . SVG Version: 6.00 Build 0)  -->
<svg version="1.1" id="Слой_1" xmlns="http://www.w3.org/2000/svg" xmlns:xlink="http://www.w3.org/1999/xlink" x="0px" y="0px"
	 viewBox="0 0 28 27" style="enable-background:new 0 0 28 27;" xml:space="preserve">
<style type="text/css">
	.st0{fill:#342E2E;}
</style>
<path class="st0" d="M19.9,13.3C21.2,11.9,22,10,22,8c0-4.4-3.6-8-8-8S6,3.6,6,8s3.6,8,8,8c1.6,0,3-0.5,4.2-1.2
	c4.4,1.6,7.3,5.6,7.7,10.2H2c0.3-3.1,1.7-6,4.1-8.1c0.4-0.4,0.5-1,0.1-1.4c-0.4-0.4-1-0.5-1.4-0.1C1.8,18.1,0,22,0,26
	c0,0.6,0.4,1,1,1h26c0.6,0,1-0.4,1-1C28,20.5,24.8,15.6,19.9,13.3z M8,8c0-3.3,2.7-6,6-6s6,2.7,6,6s-2.7,6-6,6S8,11.3,8,8z"/>
</svg>
