<svg width="45" height="45" viewBox="0 0 45 45" fill="none" xmlns="http://www.w3.org/2000/svg">
<rect width="45" height="45" rx="10" fill="#EDDED1"/>
<path d="M39.8535 23.7367C40.6072 28.6112 38.3839 31.13 34.7491 35.0466C30.8646 39.2323 31.6199 39.841 24.6071 39.9134C12.0905 40.0427 9.15896 41.0574 5.97388 30.8006C4.4614 25.9299 2.89741 22.211 5.07215 17.3394C7.34244 12.2536 11.4771 7.83539 18.1866 6.79508C26.9384 5.4382 35.4542 4.99326 38.7286 12.4253C40.1184 15.5802 39.3115 20.2311 39.8535 23.7367Z" fill="#A35330"/>
<path d="M17.1578 34.9998C17.0536 34.9623 16.9491 34.9308 16.8506 34.8871C16.3521 34.6365 16.0391 34.2232 16.016 33.622C15.9928 32.8956 15.9985 32.1691 16.0102 31.4427C16.016 30.9167 16.2536 30.522 16.6536 30.2339C16.9783 30.0022 17.297 29.7516 17.6331 29.5387C17.9635 29.3194 18.1259 29.0252 18.0967 28.6056C18.091 28.4741 18.091 28.3426 18.1024 28.2047C18.1256 27.8415 18.3807 27.5596 18.7169 27.5408C19.0009 27.5283 19.2849 27.5283 19.563 27.5345C19.7079 27.5408 19.7832 27.5033 19.8238 27.3405C19.9398 26.9145 20.0789 26.495 20.2006 26.0692C20.2296 25.969 20.2296 25.8502 20.2064 25.7561C19.9919 24.9233 19.7543 24.0966 19.5515 23.2572C19.5109 23.088 19.5109 22.8816 19.569 22.7186C20.5891 19.6625 22.3278 17.1509 24.5825 15.0217C26.2633 13.4308 28.1296 12.1471 30.1582 11.12C30.1931 11.1011 30.222 11.0887 30.2567 11.0699C30.529 10.9384 30.7667 10.9947 30.9116 11.2202C31.0565 11.4395 31.0218 11.7087 30.8188 11.9405C30.5405 12.2598 30.2567 12.5731 29.9899 12.9048C28.5468 14.7274 27.4107 16.7626 26.4197 18.8983C25.6257 20.6018 24.9359 22.3492 24.3332 24.1402C24.2868 24.2779 24.1651 24.4159 24.0434 24.4846C23.0464 25.0232 22.0437 25.5492 21.047 26.0816C20.9485 26.1318 20.8557 26.2509 20.821 26.3573C20.6876 26.7267 20.5834 27.1088 20.456 27.5283H21.3834C22.015 27.5283 22.2759 27.7789 22.2412 28.4615C22.2123 28.9939 22.3803 29.3571 22.815 29.6139C23.1105 29.7893 23.3831 30.0146 23.6671 30.2215C24.1192 30.5408 24.3394 30.9981 24.3394 31.5806V33.4531C24.3336 34.2046 23.9626 34.737 23.2846 34.9561C23.2556 34.9623 23.2382 34.9811 23.2092 35C21.1923 35 17.1633 35 17.1633 35M22.8572 30.5371C22.863 30.5245 22.863 30.5056 22.869 30.4932C22.8051 30.4431 22.747 30.3992 22.683 30.3488C22.4623 30.1793 22.2474 30.0099 22.0265 29.8531C21.951 29.7965 21.8522 29.7399 21.7652 29.7399C20.7081 29.7337 19.645 29.7337 18.5878 29.7337C18.524 29.7337 18.4485 29.7399 18.4019 29.7777C17.9314 30.1292 17.4666 30.487 16.9962 30.8383C16.787 30.9951 16.6708 31.2149 16.6708 31.4911C16.6708 32.1689 16.6591 32.8532 16.6708 33.531C16.6766 33.9828 16.9787 34.2966 17.3968 34.2966C19.2556 34.3028 21.1145 34.3028 22.9675 34.2966C23.3798 34.2966 23.682 33.9701 23.6935 33.5245C23.7052 32.8529 23.6935 32.1813 23.6992 31.5035C23.6992 31.2901 23.6294 31.2273 23.432 31.2335C21.939 31.2462 20.4406 31.2397 18.9476 31.2397C18.8778 31.2397 18.8025 31.2459 18.7327 31.2271C18.5584 31.1832 18.454 31.0576 18.4714 30.8567C18.4831 30.6684 18.5934 30.5617 18.7676 30.5428C18.8374 30.5366 18.9127 30.5366 18.9825 30.5366H22.6595C22.7234 30.5366 22.8625 30.5366 22.8625 30.5366M22.7992 21.5478C22.8166 21.5667 22.8341 21.5793 22.8515 21.5979C23.415 21.4597 23.9784 21.3153 24.5419 21.1836C24.687 21.1521 24.7626 21.0769 24.8207 20.9387C25.2098 20.0287 25.5873 19.1184 26.0114 18.2272C27.0279 16.0682 28.2012 14.0094 29.6942 12.1829C29.7059 12.164 29.7116 12.1389 29.7405 12.0824C29.6767 12.1201 29.6476 12.1325 29.6244 12.1452C27.9399 13.0867 26.3772 14.2163 24.96 15.5658C23.868 16.6075 22.8921 17.7563 22.0614 19.0491C22.0208 19.1119 21.9859 19.2186 22.015 19.2687C22.2182 19.6515 22.4331 20.0282 22.6598 20.436C22.7062 20.3606 22.7411 20.3105 22.7702 20.2604C23.6473 18.6976 24.6464 17.2288 25.7616 15.8543C25.9882 15.5782 26.1508 15.5216 26.3251 15.6722C26.5051 15.829 26.4702 16.0173 26.2553 16.3188C25.4943 17.3732 24.7217 18.4214 23.9957 19.5071C23.5543 20.1606 23.1941 20.8638 22.7992 21.5478ZM24.4023 21.9559C24.3499 21.9621 24.321 21.9559 24.2978 21.9621C23.6995 22.1065 23.0953 22.2509 22.4972 22.4015C22.4274 22.4204 22.3521 22.502 22.3172 22.571C22.114 23.0104 21.9106 23.456 21.7248 23.9016C21.5563 24.297 21.4054 24.6987 21.2311 25.1443C21.3124 25.1128 21.3473 25.1066 21.3762 25.0877C22.1314 24.6861 22.8866 24.2906 23.6359 23.8827C23.7171 23.8388 23.781 23.7383 23.8159 23.6443C24.0019 23.1483 24.1702 22.6526 24.3444 22.1566C24.3617 22.1065 24.3791 22.0438 24.4023 21.9559ZM21.556 22.6275C21.6954 22.3326 21.8058 22.1003 21.9161 21.8681C22.0322 21.6232 22.2414 21.3786 22.2355 21.1399C22.2297 20.9015 22.0088 20.6693 21.8812 20.4306C21.7824 20.2485 21.678 20.0666 21.5558 19.8468C21.3641 20.2172 21.1958 20.5373 21.033 20.8635C21.004 20.9201 20.9981 21.0017 21.0155 21.058C21.1843 21.5605 21.3586 22.0626 21.556 22.6275ZM20.6034 21.8867C20.2259 22.5144 20.0923 23.1483 20.4002 23.8261C20.4525 23.939 20.47 24.0646 20.4989 24.1839C20.5513 24.366 20.5976 24.5479 20.6615 24.7739C20.83 24.3472 20.9809 23.9767 21.1262 23.6066C21.1436 23.5627 21.1494 23.4999 21.1319 23.4498C20.9577 22.9287 20.7834 22.4139 20.6034 21.8867ZM21.6104 28.1913C21.1864 28.1913 20.7914 28.1913 20.3905 28.1975C20.3499 28.1975 20.286 28.2352 20.2743 28.2665C20.2105 28.4987 20.1582 28.7371 20.1001 28.982H21.6104V28.1913ZM18.7699 29.0056C18.9499 29.0056 19.1359 29.0118 19.3217 28.9994C19.3566 28.9994 19.4147 28.9492 19.4262 28.9115C19.49 28.6855 19.5366 28.4533 19.5947 28.2148H18.7699V29.0056Z" fill="#F5E8E0"/>
</svg>
