<svg width="45" height="45" viewBox="0 0 45 45" fill="none" xmlns="http://www.w3.org/2000/svg">
<rect width="45" height="45" rx="10" fill="#EDDED1"/>
<rect width="45" height="45" rx="10" fill="#EDDED1"/>
<path d="M39.8535 23.7367C40.6072 28.6112 38.3839 31.13 34.7491 35.0466C30.8646 39.2323 31.6199 39.841 24.6071 39.9134C12.0905 40.0427 9.15896 41.0574 5.97388 30.8006C4.4614 25.9299 2.89741 22.211 5.07215 17.3394C7.34244 12.2536 11.4771 7.83539 18.1866 6.79508C26.9384 5.4382 35.4542 4.99326 38.7286 12.4253C40.1184 15.5802 39.3115 20.2311 39.8535 23.7367Z" fill="#C38D57"/>
<path d="M21.9959 23.5217C22.0169 23.665 21.9551 23.7391 21.8541 23.8543C21.7462 23.9774 21.7672 23.9953 21.5724 23.9975C21.2247 24.0013 21.1433 24.0311 21.0548 23.7294C21.0128 23.5862 20.9694 23.4768 21.0298 23.3335C21.0928 23.1839 21.2077 23.054 21.3941 23.0234C21.6372 22.9835 21.8737 22.9704 21.9647 23.189C22.0033 23.2818 21.9809 23.4186 21.9959 23.5217Z" fill="#C38D57"/>
<path d="M13.0521 33.9871C12.9169 33.8862 12.8694 33.745 12.8763 33.5771C12.8832 33.2278 12.8763 32.8784 12.8763 32.529C12.8763 31.8302 13.2348 31.4267 13.938 31.3327C13.9652 31.3259 13.9921 31.3194 14.0847 31.3126V29.982C14.0395 29.6326 14.1139 29.5587 14.4724 29.5317H15.5207C13.0858 27.3474 11.8348 24.6596 12.0175 21.4139C12.1999 18.1681 13.6879 15.5876 16.3726 13.7462C20.3764 10.991 25.8882 11.5151 29.3102 15.1841C31.2376 17.247 32.1439 19.7133 31.9815 22.5359C31.8191 25.3447 30.6018 27.6565 28.458 29.5949H29.5197C29.8782 29.5648 29.9526 29.6391 29.9824 29.9884V31.319C30.0338 31.3324 30.0947 31.3392 30.1625 31.3525C30.7102 31.4401 31.0821 31.8363 31.1093 32.3874C31.1296 32.8175 31.1296 33.2475 31.1093 33.6708C31.1024 33.785 31.0013 33.8858 30.9404 34C24.9755 33.9867 19.0174 33.9867 13.0525 33.9867M21.9932 29.5169C23.772 29.5169 25.5504 29.5169 27.3292 29.51C27.4441 29.51 27.5728 29.4697 27.6605 29.4023C30.6631 27.0099 31.9144 23.9121 31.2518 20.1423C30.5141 15.9225 26.7807 12.7373 22.4727 12.5424C20.4304 12.4484 18.5436 12.9591 16.8257 14.0678C13.681 16.1041 12.0443 19.8336 12.7074 23.503C13.1333 25.8817 14.3169 27.8171 16.224 29.3224C16.3929 29.4567 16.5553 29.5173 16.7717 29.5104C18.5099 29.5104 22.0016 29.5173 22.0016 29.5173M13.4677 33.4226H30.524C30.524 33.0607 30.5374 32.7189 30.5171 32.3706C30.5037 32.1522 30.3957 31.9813 30.1728 31.9196C30.0579 31.8854 29.9296 31.8785 29.8082 31.8785H14.1705C14.0962 31.8785 14.0288 31.8717 13.9545 31.8854C13.6642 31.9196 13.4819 32.0837 13.4681 32.3703C13.4547 32.7185 13.4681 33.0671 13.4681 33.4222M14.6164 31.2654H29.365V30.1236H14.6168V31.2654H14.6164Z" fill="#F5E8E0"/>
<path d="M16.0314 26.5682C16.1128 25.978 16.2002 25.3424 16.294 24.7067C16.3192 24.5384 16.294 24.4386 16.1939 24.3236C15.8315 23.9023 15.4691 23.4809 15.1254 23.044C15.0504 22.9442 14.9941 22.7759 15.0005 22.6457C15.0129 22.4543 15.1629 22.4235 15.3003 22.4005C15.8 22.3163 16.3 22.2166 16.7998 22.1324C16.9183 22.1094 16.9873 22.0556 17.0372 21.918C17.2496 21.3665 17.481 20.8224 17.6998 20.2709C17.7624 20.1178 17.8435 19.9568 17.9935 20.0106C18.0997 20.0488 18.2122 20.156 18.2685 20.2787C18.506 20.8229 18.7183 21.3895 18.9494 21.9336C18.9869 22.0178 19.0744 22.102 19.1494 22.1176C19.6555 22.2248 20.1616 22.309 20.6677 22.3936C20.8053 22.4166 20.9363 22.4548 20.9862 22.6387C21.0361 22.8227 20.9423 22.9451 20.8425 23.0601C20.4801 23.4892 20.1113 23.9183 19.7553 24.3548C19.7054 24.4238 19.6679 24.554 19.6802 24.646C19.7553 25.2743 19.8551 25.8947 19.9241 26.5304C19.9365 26.6528 19.899 26.8216 19.8367 26.9209C19.7429 27.0589 19.6056 26.9899 19.4867 26.9131C19.0429 26.6298 18.5994 26.3538 18.162 26.0627C18.0307 25.9707 17.9245 25.9785 17.7932 26.0705C17.3558 26.3616 16.912 26.645 16.4685 26.9209C16.2123 27.0819 16.0187 26.9439 16.0311 26.5686M19.3242 26.0783C19.2556 25.5572 19.1993 25.1128 19.1243 24.6685C19.0744 24.3852 19.1243 24.1782 19.2991 23.9712C19.5741 23.6493 19.8239 23.2896 20.0738 22.9524C19.78 22.8986 19.4488 22.7993 19.1115 22.7841C18.7427 22.7689 18.5368 22.5541 18.4242 22.148C18.3931 22.033 18.3368 21.9258 18.2929 21.8187C18.1928 21.5657 18.0866 21.3205 17.9744 21.0372C17.8371 21.3743 17.7182 21.6729 17.5932 21.9718C17.2432 22.8145 17.4184 22.6613 16.6433 22.8071C16.3747 22.8609 16.1061 22.9069 15.8934 22.9524C16.156 23.3048 16.4183 23.6727 16.6932 24.0172C16.8182 24.1782 16.8808 24.3314 16.8433 24.5614C16.7619 25.0517 16.706 25.5498 16.631 26.0783C17.0121 25.8331 17.3682 25.6188 17.7122 25.381C17.8934 25.2582 18.0558 25.2582 18.237 25.381C18.587 25.6183 18.937 25.8331 19.3242 26.0783Z" fill="#F5E8E0"/>
<path d="M24.8513 19.9991C24.7986 19.9783 24.7127 19.9504 24.6334 19.9022C24.2972 19.7222 23.9672 19.5285 23.6242 19.3551C23.5517 19.3206 23.4329 19.3206 23.3604 19.3551C23.0043 19.5351 22.6609 19.7289 22.3115 19.923C22.1864 19.9924 22.041 20.0544 21.9487 19.923C21.8762 19.8261 21.843 19.6736 21.8628 19.5492C21.9091 19.1477 21.9879 18.7531 22.041 18.3511C22.0541 18.268 22.0145 18.1504 21.9618 18.088C21.6913 17.797 21.4009 17.5272 21.1371 17.2362C21.0579 17.146 20.9787 16.9801 21.0052 16.8832C21.0318 16.7864 21.1835 16.6895 21.3023 16.6687C21.6584 16.5926 22.0216 16.544 22.3844 16.4958C22.5428 16.475 22.6482 16.4263 22.7207 16.2534C22.8724 15.9004 23.0376 15.5471 23.2221 15.2079C23.2748 15.111 23.4067 15 23.4994 15C23.5921 15 23.7236 15.111 23.7766 15.2079C23.9612 15.5471 24.1197 15.9004 24.2781 16.2534C24.3442 16.4126 24.4429 16.4679 24.5946 16.4887C24.9705 16.5373 25.3468 16.5856 25.7163 16.6617C25.8221 16.6824 25.954 16.7793 25.9936 16.8762C26.0201 16.9593 25.9607 17.1185 25.8878 17.2017C25.6106 17.5064 25.3139 17.7833 25.0366 18.088C24.9839 18.1504 24.9507 18.268 24.9574 18.3511C25.0168 18.7735 25.0893 19.1959 25.1554 19.6112C25.1752 19.8257 25.0564 19.992 24.852 19.9991M23.493 15.9275C23.3544 16.2114 23.2292 16.4609 23.1235 16.7169C23.0312 16.9315 22.8926 17.0287 22.6747 17.0491C22.4173 17.0699 22.1602 17.1252 21.9027 17.1668C22.1008 17.3884 22.2723 17.5962 22.4636 17.7762C22.6351 17.9354 22.668 18.1088 22.6284 18.33C22.5757 18.5931 22.5361 18.8633 22.4898 19.1677C22.7076 19.05 22.9053 18.9669 23.0768 18.8421C23.3604 18.6414 23.6246 18.6276 23.9082 18.8351C24.0797 18.9598 24.2777 19.0429 24.5019 19.1673C24.4556 18.8696 24.4294 18.6202 24.37 18.3711C24.3173 18.1151 24.3569 17.9209 24.5546 17.7409C24.7459 17.568 24.9043 17.3601 25.0889 17.1593C24.8121 17.1178 24.5479 17.0691 24.2773 17.0346C24.0928 17.0138 23.9672 16.9307 23.888 16.7507C23.7628 16.4875 23.6305 16.2244 23.4923 15.9267" fill="#F5E8E0"/>
<path d="M27.5029 24C26.6814 24 26.0062 23.5538 26 23.0061C25.9938 22.4584 26.6938 21.9961 27.5091 22C28.3307 22.0081 29.0058 22.4584 29 23.002C29 23.5497 28.3245 23.9998 27.5033 23.9998M27.4971 23.6549C28.0447 23.6591 28.4889 23.3668 28.4889 23.0017C28.4889 22.6367 28.0385 22.3405 27.5033 22.3446C26.9739 22.3446 26.5297 22.6367 26.5177 22.9937C26.5115 23.3546 26.9498 23.6549 27.4974 23.6549" fill="#F5E8E0"/>
<path d="M18.236 17.3798H18.7153C18.8713 17.3798 18.9752 17.4145 18.9983 17.4956C19.0157 17.5652 18.8944 17.6202 18.7211 17.626C18.6403 17.6289 18.5593 17.626 18.4843 17.626H18.236V17.8521C18.2302 17.9478 18.1553 17.997 18.0051 17.9999C17.8549 18.0028 17.7567 17.9478 17.751 17.8521C17.7452 17.7825 17.751 17.7101 17.751 17.626H17.3351C17.1099 17.6231 16.9944 17.5826 17.0002 17.4985C17.0002 17.4203 17.1099 17.3798 17.3296 17.3798H17.7513C17.7513 17.2957 17.7455 17.2233 17.7513 17.1508C17.7571 17.0551 17.8609 16.9972 18.0054 17.0001C18.1498 17.003 18.2305 17.058 18.2363 17.1508C18.2363 17.2204 18.2363 17.2928 18.2363 17.3798" fill="#F5E8E0"/>
<path d="M22.7637 27.3749C22.7637 27.2877 22.7578 27.2151 22.7637 27.1425C22.7696 27.0525 22.8613 26.9972 23.0051 27.0001C23.1717 27.0031 23.2407 27.0612 23.2466 27.1367C23.2524 27.2093 23.2466 27.2849 23.2466 27.3751C23.4018 27.3751 23.5453 27.3663 23.6888 27.378C23.7809 27.3838 23.8958 27.4042 23.953 27.4391C24.0679 27.5089 23.9589 27.6106 23.7692 27.6163C23.6084 27.6221 23.4418 27.6163 23.2463 27.6163C23.2463 27.6976 23.2521 27.7732 23.2463 27.8459C23.2404 27.9419 23.1428 28 22.9993 28C22.8558 28 22.7696 27.9419 22.7582 27.8431C22.7523 27.7706 22.7868 27.6746 22.7123 27.634C22.6433 27.5961 22.4481 27.6223 22.3101 27.6195C22.1149 27.6165 22.0055 27.5729 22 27.4973C22 27.4248 22.1149 27.3752 22.3046 27.3724C22.4539 27.3724 22.5974 27.3754 22.7644 27.3754" fill="#F5E8E0"/>
</svg>
