<svg width="45" height="45" viewBox="0 0 45 45" fill="none" xmlns="http://www.w3.org/2000/svg">
<rect width="45" height="45" rx="10" fill="#EDDED1"/>
<path d="M39.8536 23.7365C40.6072 28.611 38.384 31.1301 34.7492 35.0467C30.8647 39.2323 31.6201 39.8411 24.607 39.9135C12.0903 40.0426 9.15887 41.0576 5.97379 30.8006C4.46126 25.9299 2.89737 22.211 5.07235 17.3393C7.34237 12.2535 11.4775 7.83524 18.1869 6.79506C26.9385 5.43823 35.4543 4.99318 38.7289 12.4256C40.1187 15.5802 39.3116 20.2311 39.8539 23.7369" fill="#A35330"/>
<path d="M12.0072 25.3842C10.0811 22.4972 11.0035 18.898 13.123 17.2151C14.3819 16.2115 15.7908 15.8296 17.3614 16.0693C18.9319 16.309 20.0913 17.2539 21.1011 18.4642C21.338 18.2182 21.5562 18.0046 21.7679 17.778C22.896 16.574 24.2674 15.9719 25.888 16.0044C28.3813 16.0562 30.6066 17.9916 31.1239 20.5742C31.4603 22.2441 31.186 23.7979 30.2888 25.2285C30.2701 25.2543 30.2514 25.2804 30.2388 25.3125C30.2327 25.3256 30.2327 25.345 30.2262 25.3771C30.2949 25.3834 30.3571 25.3902 30.4257 25.3902H32.601C32.8691 25.3902 33 25.4872 33 25.6813C32.9939 25.8691 32.8566 25.9725 32.5888 25.9725C31.7037 25.9725 30.8122 25.9662 29.9271 25.9789C29.815 25.9789 29.6715 26.0435 29.5907 26.1278C26.8729 28.9954 24.1617 31.8696 21.444 34.7435C21.1198 35.0866 21.0637 35.0866 20.7333 34.7371C18.053 31.876 15.3666 29.0215 12.6863 26.1603C12.5615 26.0308 12.4432 25.9725 12.2624 25.9725C11.6391 25.9856 11.0157 25.9856 10.3924 25.9725C10.2741 25.9725 10.1242 25.908 10.0559 25.8236C9.91247 25.6489 10.062 25.4092 10.3115 25.4028C10.8349 25.3965 11.3526 25.4028 11.876 25.4028C11.9073 25.3965 11.9446 25.3898 12.0068 25.3834M21.8053 26.3985C21.8675 26.282 21.9113 26.2107 21.9487 26.1331C22.3291 25.3692 22.7155 24.5991 23.0955 23.8352C23.1828 23.6605 23.2889 23.5179 23.4945 23.5116C23.7001 23.5052 23.8188 23.6411 23.9122 23.8095C24.1678 24.2821 24.4356 24.7417 24.6912 25.2143C24.7599 25.3439 24.8408 25.389 24.9842 25.389C26.4178 25.3827 27.8515 25.389 29.2851 25.376C29.3911 25.376 29.5281 25.3047 29.5907 25.2207C30.6813 23.7318 30.9869 22.0746 30.4696 20.2816C29.3789 16.4818 24.8972 15.323 22.2108 18.1323C21.9365 18.4172 21.6687 18.7084 21.3944 18.9996C21.1888 19.2131 21.0702 19.2198 20.8645 19.0059C20.5529 18.6886 20.2538 18.3585 19.936 18.0479C18.5897 16.7275 17.0065 16.2549 15.2174 16.76C11.702 17.7441 10.3679 22.249 12.6431 25.2397C12.7053 25.3237 12.8487 25.3819 12.9548 25.3819C14.6066 25.3883 16.2585 25.3883 17.9099 25.3883C18.3006 25.3883 18.5602 25.1919 18.6889 24.7992C18.9197 24.1067 19.1501 23.4138 19.3745 22.7149C19.4431 22.5077 19.5366 22.346 19.767 22.333C20.01 22.3199 20.1287 22.4752 20.2095 22.6824C20.2157 22.7018 20.2282 22.7276 20.2344 22.747C20.7578 23.951 21.2754 25.155 21.8049 26.3978M21.0881 34.282C23.7059 31.5116 26.3053 28.7605 28.9418 25.9718H28.6301C27.3773 25.9707 26.1245 25.9643 24.8652 25.977C24.5784 25.977 24.3979 25.8736 24.2667 25.6145C24.0359 25.1744 23.7807 24.7406 23.5251 24.2747C23.469 24.3848 23.4255 24.4557 23.3816 24.5337C22.9891 25.3233 22.6026 26.1133 22.1975 26.8965C22.1353 27.0193 22.0106 27.1362 21.8858 27.1877C21.6802 27.2654 21.512 27.1425 21.3998 26.8835C20.9138 25.7571 20.4335 24.6308 19.9536 23.5045C19.9162 23.4205 19.8788 23.3428 19.8227 23.226C19.7792 23.3425 19.7541 23.4138 19.7293 23.4914C19.505 24.1712 19.2868 24.8507 19.0624 25.5305C18.9377 25.9124 18.8442 25.9837 18.4517 26.0282H13.297C15.9087 28.7669 18.4891 31.5116 21.0885 34.282" fill="#F5E8E0"/>
</svg>
