<svg width="45" height="45" viewBox="0 0 45 45" fill="none" xmlns="http://www.w3.org/2000/svg">
<rect width="45" height="45" rx="10" fill="#EDDED1"/>
<path d="M39.8536 23.7365C40.6072 28.611 38.384 31.1301 34.7492 35.0467C30.8647 39.2323 31.6201 39.8411 24.607 39.9135C12.0903 40.0426 9.15887 41.0576 5.97379 30.8006C4.46126 25.9299 2.89737 22.211 5.07235 17.3393C7.34237 12.2535 11.4775 7.83524 18.1869 6.79506C26.9385 5.43823 35.4543 4.99318 38.7289 12.4256C40.1187 15.5802 39.3116 20.2311 39.8539 23.7369" fill="#916339"/>
<path d="M25.9998 18.517C25.9921 19.3524 25.0984 20.0057 23.9773 20C22.8711 19.9942 21.9928 19.3239 22 18.4831C22.0077 17.6535 22.9091 16.989 24.0225 17.0001C25.1359 17.0171 26.0147 17.682 25.9998 18.517ZM22.8029 18.4943C22.8029 18.9999 23.3254 19.4035 23.9922 19.4089C24.6662 19.4147 25.2042 19.0168 25.2042 18.517C25.2119 17.9998 24.6739 17.6023 23.9845 17.6077C23.3254 17.6077 22.8029 17.9998 22.8029 18.4939" fill="#F5E8E0"/>
<path d="M13 30.8682V29.1774C13 29.1774 13.1049 28.8308 13.3708 28.7911C13.6765 28.7457 13.8802 28.5183 13.8745 28.2344C13.8687 27.9562 13.6708 27.74 13.3708 27.6946C13.0934 27.6549 13.0607 27.2913 13.0607 27.2913V23.9415C13.0187 23.6461 13.0808 23.578 13.3812 23.5268C13.6701 23.4814 13.8738 23.254 13.8684 22.97C13.8626 22.6915 13.6643 22.4702 13.3701 22.4248C13.0869 22.3852 13.019 22.3056 13.0611 22.0216V18.6412C13.019 18.3684 13.0927 18.2891 13.3532 18.2491C13.6647 18.2037 13.8687 17.9821 13.863 17.6981C13.863 17.4084 13.6589 17.1926 13.3474 17.1529C13.0981 17.1187 13.019 17.0279 13.0611 16.7778V13.3577C13.019 13.0907 13.3927 13.0013 13.3927 13.0013H16.8134C16.8134 13.0013 17.1475 13.068 17.1817 13.3239C17.2269 13.6305 17.4479 13.8352 17.7367 13.8352C18.0256 13.8352 18.2408 13.6305 18.2861 13.3181C18.3202 13.068 18.4107 12.9887 18.6597 13.0013H22.0804C22.3298 12.9887 22.4203 13.068 22.4541 13.3239C22.4993 13.6363 22.7146 13.841 23.0034 13.841C23.2923 13.841 23.5075 13.6363 23.5528 13.3239C23.5869 13.0738 23.6774 12.9887 23.9264 13.0013H27.3471C27.6018 12.9887 27.687 13.068 27.7207 13.3181C27.766 13.6305 27.9812 13.8352 28.2701 13.8352C28.5589 13.8352 28.7799 13.6305 28.8252 13.3239C28.8647 13.0626 28.9441 12.9887 29.2161 13.0013H32.5915C32.8861 12.9887 32.9878 13.0853 32.9393 13.3804V16.7529C32.9393 16.7529 32.9184 17.105 32.6353 17.1508C32.3411 17.1962 32.1428 17.4178 32.1428 17.696C32.1428 17.9742 32.3411 18.2015 32.6353 18.2469C32.9296 18.2923 32.9921 18.3605 33 18.6617V22.0194C32.9917 22.3034 32.9238 22.3773 32.6411 22.4227C32.3468 22.4681 32.1485 22.6839 32.1428 22.9679C32.1428 23.2464 32.3411 23.4734 32.6296 23.5189C32.9296 23.5643 32.9375 23.9336 32.9393 23.9336V27.2913C32.9393 27.2913 32.9184 27.6549 32.6411 27.6946C32.3468 27.74 32.1428 27.9558 32.1428 28.2344C32.137 28.5241 32.3411 28.7457 32.6465 28.7911C32.9127 28.8308 32.986 28.9104 32.9393 29.1774V32.5806C32.9863 32.8587 32.8843 32.9611 32.6012 32.9391H29.2046C28.9498 32.9611 28.8593 32.8814 28.8252 32.6314C28.7799 32.3189 28.5704 32.1143 28.2816 32.1089C27.9873 32.1031 27.7721 32.3135 27.7269 32.6371C27.6927 32.8699 27.6022 32.9553 27.3647 33H23.9282C23.6904 32.9553 23.5998 32.8703 23.566 32.6314C23.5208 32.3132 23.3113 32.1143 23.0225 32.1089C22.7282 32.1031 22.5072 32.3078 22.462 32.6371C22.4278 32.8699 22.3373 32.9611 22.0998 32.9391H18.6633C18.4255 32.9611 18.3349 32.8757 18.3012 32.6371C18.2559 32.3132 18.0349 32.1031 17.7407 32.1089C17.4518 32.1146 17.2424 32.3189 17.1971 32.6314C17.163 32.8699 16.8403 33 16.8403 33H13.4038C13.1491 32.9647 13.0417 32.8566 13.0417 32.6011C13.0302 32.0328 13.0101 30.8855 13.0101 30.8855M24.1215 13.5646C23.9347 14.0759 23.5836 14.3883 23.0347 14.4053C22.4516 14.4168 21.8853 13.5487 21.8853 13.5487H19.0603C19.0603 13.5487 18.8451 13.6049 18.7772 13.7469C18.5789 14.1844 18.2167 14.4229 17.7357 14.4229C17.2546 14.4229 16.9036 14.1786 16.6941 13.7469C16.6657 13.69 16.6431 13.6334 16.6205 13.6096H13.6277V16.5818C13.6277 16.5818 14.4637 17.1781 14.4691 17.6556C14.4748 18.2466 14.1633 18.6156 13.6884 18.8203V21.8598C14.1522 22.053 14.4637 22.4054 14.4691 22.9563C14.4748 23.53 13.6334 24.0868 13.6277 24.0868V27.1263C13.6338 27.1263 14.458 27.6661 14.4691 28.2171C14.4806 28.7965 13.6902 29.359 13.6884 29.359V32.3096H16.632C16.8245 31.8418 17.1867 31.5236 17.7587 31.5236C18.3191 31.5294 18.8627 32.3705 18.8627 32.3705H21.8972C21.8972 32.3705 22.435 31.5291 22.984 31.5236C23.5614 31.5121 23.9293 31.8361 24.1276 32.3705H27.1621C27.3431 31.8588 27.683 31.5521 28.2151 31.5236C28.8151 31.4952 29.1888 31.8249 29.3925 32.3705H32.3734V29.359C32.3734 29.359 31.5661 28.8308 31.5492 28.291C31.5266 27.7 31.855 27.331 32.3734 27.1263V24.0868C31.8891 23.9051 31.5834 23.5754 31.5492 23.0529C31.5097 22.445 31.8435 22.0587 32.4341 21.8486V18.8149C31.8719 18.6217 31.555 18.2693 31.5492 17.7071C31.5435 17.1335 31.8661 16.7753 32.3734 16.5821V13.5693H29.3925C29.1942 14.1188 28.8263 14.4427 28.2489 14.4316C27.6999 14.42 27.3489 14.1022 27.1621 13.5909C26.1485 13.5851 25.1354 13.5851 24.1218 13.5851" fill="#F5E8E0"/>
<path d="M30 23V29.5577C30 29.8019 29.8017 30 29.5571 30H16.4425C16.1983 30 16 29.8023 16 29.5581V16.4419C16 16.1977 16.198 16 16.4425 16H29.5571C29.8017 16 30 16.1981 30 16.4423V23ZM22.9645 24.4841C23.0259 24.4226 23.065 24.3722 23.1098 24.3275C23.7536 23.6393 24.403 22.951 25.0464 22.2624C25.6115 21.6579 26.3001 21.6579 26.8656 22.2567C27.6494 23.0848 28.4271 23.919 29.2052 24.7471C29.2557 24.7975 29.2891 24.8646 29.3339 24.926C29.3506 24.9093 29.362 24.8922 29.3787 24.8812V16.5598H16.5609V24.9203C16.6391 24.8418 16.701 24.7861 16.7568 24.7244C17.5182 23.9129 18.2792 23.1015 19.0406 22.2958C19.6505 21.6522 20.3167 21.6522 20.9213 22.2958C21.5874 23.0177 22.2646 23.7397 22.9645 24.4837M26.7454 29.3795C26.695 29.3235 26.6726 29.2958 26.6502 29.2677C24.5836 27.0685 22.5166 24.8692 20.45 22.6699C20.1475 22.3455 19.8226 22.3508 19.5148 22.6756C18.5682 23.6829 17.6159 24.6903 16.675 25.703C16.6021 25.7814 16.5574 25.9099 16.5574 26.0164C16.5463 27.0685 16.5517 28.1205 16.5517 29.1783C16.5517 29.2454 16.5574 29.3125 16.563 29.3799H26.7355M23.385 24.9309C23.4635 25.0147 23.525 25.0765 23.5865 25.1436C24.7513 26.3859 25.9332 27.6115 27.076 28.8762C27.4176 29.2567 27.7592 29.4527 28.2746 29.3856C28.5828 29.3465 28.902 29.3799 29.2155 29.3799C29.277 29.3799 29.3332 29.3742 29.406 29.3685C29.406 28.199 29.406 27.0518 29.4003 25.8989C29.4003 25.8428 29.3666 25.7814 29.3275 25.7367C28.3475 24.6903 27.3671 23.6492 26.3871 22.6085C26.1461 22.3565 25.8102 22.3511 25.5692 22.6085C24.8413 23.3752 24.1186 24.1476 23.385 24.9309Z" fill="#F5E8E0"/>
</svg>
