<?xml version="1.0" encoding="utf-8"?>
<!-- Generator: Adobe Illustrator 26.1.0, SVG Export Plug-In . SVG Version: 6.00 Build 0)  -->
<svg version="1.1" xmlns="http://www.w3.org/2000/svg" xmlns:xlink="http://www.w3.org/1999/xlink" x="0px" y="0px"
	 viewBox="0 0 1009.6 157.5" style="enable-background:new 0 0 1009.6 157.5;" xml:space="preserve">
<style type="text/css">
	.st0{fill:#FAFAFA;}
	.st1{fill:#C5A17C;}
	.st2{fill:#361504;}
	.st3{fill:#C5A17D;}
</style>
<g id="Слой_1">
</g>
<g id="Слой_2">
	<g>
		<path class="st0" d="M0.3,155.2V2.3h93.8v15.5H17.3V69H88l-0.4,15.5H17.3v70.7H0.3z"/>
		<path class="st0" d="M121.1,142.5c-9.3-10.4-14-23.1-14-38.2c0-15.1,4.7-27.8,14-38c9.6-10.4,21.4-15.5,35.7-15.5
			c16.3,0,30.4,8.3,38.9,19.1h0.6l3-16.6h10.8v101.9h-10.8l-3-16.6h-0.6c-8.5,10.8-22.5,19.1-38.9,19.1
			C142.6,157.8,130.7,152.7,121.1,142.5z M184,132.3c7-7,10.4-15.7,10.4-26.1v-3.8c0-10.4-3.4-18.9-10.4-25.9
			c-7-7-15.5-10.6-25.5-10.6c-10.4,0-18.7,3.6-25.3,11c-6.6,7.4-9.8,16.6-9.8,27.4s3.2,20,9.8,27.4c6.6,7.4,14.9,11,25.3,11
			C168.5,142.7,177,139.3,184,132.3z"/>
		<path class="st1" d="M479.9,138.4h-0.6l-3,16.6h-10.8V0h16.3v52.4l-0.4,16.1h0.6c7-9.6,21-18,37.2-18c14.2,0,26.1,5.1,35.2,15.5
			c9.3,10.4,14,22.9,14,38c0,15.1-4.7,27.8-14.2,38.2c-9.3,10.2-21.2,15.3-35.5,15.3C502,157.5,488.2,149.3,479.9,138.4z M552.1,104
			c0-21.4-14.2-38.4-35-38.4c-20.2,0-36.1,15.9-36.1,36.5v3.8c0,20.6,15.9,36.5,36.1,36.5C537.9,142.5,552.1,125.7,552.1,104z"/>
		<path class="st1" d="M640.4,50.5c15.3,0,28,5.1,38,15.5c10,10.4,15.1,22.9,15.1,38c0,15.1-5.1,27.6-15.1,38
			c-10,10.4-22.7,15.5-38,15.5s-28-5.1-38-15.5c-10-10.4-14.9-22.9-14.9-38C586.9,75.2,610.3,50.1,640.4,50.5z M666.5,131.2
			c7-7.4,10.4-16.3,10.4-27.2s-3.4-19.7-10.4-27.2c-6.8-7.4-15.5-11-26.1-11c-10.6,0-19.3,3.6-26.3,11c-6.8,7.4-10.2,16.3-10.2,27.2
			s3.4,19.7,10.2,27.2c7,7.4,15.7,11,26.3,11C651,142.3,659.7,138.6,666.5,131.2z"/>
		<path class="st1" d="M763.5,50.5c15.3,0,28,5.1,38,15.5c10,10.4,15.1,22.9,15.1,38c0,15.1-5.1,27.6-15.1,38
			c-10,10.4-22.7,15.5-38,15.5s-28-5.1-38-15.5c-10-10.4-14.9-22.9-14.9-38C710,75.2,733.4,50.1,763.5,50.5z M789.6,131.2
			c7-7.4,10.4-16.3,10.4-27.2s-3.4-19.7-10.4-27.2c-6.8-7.4-15.5-11-26.1-11c-10.6,0-19.3,3.6-26.3,11C730.4,84.3,727,93.2,727,104
			s3.4,19.7,10.2,27.2c7,7.4,15.7,11,26.3,11C774.1,142.3,782.8,138.6,789.6,131.2z"/>
		<path class="st1" d="M907.8,155l-39.7-44.8h-5.5V155h-16.8V0h16.8v95.8h5.1l38-42.7h19.5L881,102.8l46.3,52.2H907.8z"/>
		<path class="st1" d="M940.6,151v-17c8.9,6.2,18.9,9.3,29.9,9.3c12.5,0,21.7-5.5,21.7-15.9c0-5.1-1.7-8.9-6.6-11.7
			c-4.9-2.8-7-3.8-14.4-6.4c-0.6,0-1.3-0.2-1.7-0.6l-8.9-3c-1.9-0.8-4.7-2.1-7.9-3.8c-8.7-4.7-12.1-10.6-13-22.3
			c0-18.9,14.9-29.1,35-29.1c9.1,0,17.8,1.7,25.7,5.3v15.7c-7.6-4.7-15.9-7-25.1-7c-10.8,0-18.7,4.5-18.7,13.8c0,4,1.9,7.4,3.6,9.3
			c1.1,0.8,2.5,1.9,4.9,3c4.9,2.3,5.7,2.3,12.5,4.9c8.5,2.8,11.3,3.6,17.8,7.2c9.3,4.5,13,11.3,14,22.9c0,22.7-19.5,31.8-39.7,31.8
			C959.1,157.5,949.3,155.4,940.6,151z"/>
	</g>
	<g>
		<path class="st2" d="M226.5,40.9c0.8-3.9,1.6-7.7,2.5-11.6c2.9,2.5,5.9,5,8.6,7.7c30.9,30.8,61.8,61.6,92.5,92.7
			c4.3,4.4,6.5,4.2,10.7-0.1c32-32.4,64.3-64.6,96.6-96.8c1.4-1.4,3.3-2.5,5-3.7c0.6,2.1,1,4.2,1.7,6.2c3.6,10.8-0.6,18-8.6,25.8
			c-31.7,30.7-62.7,62.1-93.7,93.5c-4.2,4.3-6.4,4.4-10.7,0c-32.4-32.7-65-65.3-97.7-97.7C228.7,52.3,225.1,47.9,226.5,40.9z"/>
		<path class="st0" d="M254,36.1c22.5,12.6,45.2,24.9,67.4,38c5.7,3.4,9.6,9.2,14.5,14c-0.3,0.1,0.3,0,0.4-0.2
			c7.9-13.2,21.1-21,34.8-28.2c14.2-7.4,28.4-14.8,42.6-22.1c1.4-0.7,2.9-1.3,4.8-1.3c-1.1,1.1-2.2,2.3-3.4,3.4
			c-25.3,23.1-43.7,54.8-68.9,78c-3.4,3.2-26.4,1.3-29.7-1.8c-24.7-22.9-35.6-52.3-60.4-75.1c-1.2-1.1-2.3-2.2-3.4-3.3
			C253.2,37,253.6,36.5,254,36.1z"/>
		<path class="st3" d="M240.3,36.1c26.3,16.2,52.9,32,78.9,48.7c6.6,4.3,11.2,11.8,16.9,17.9c-0.3,0.2,0.3,0,0.5-0.3
			c9.2-16.9,24.7-27,40.7-36.2c16.6-9.5,33.2-18.9,49.9-28.4c1.6-0.9,3.3-1.6,5.7-1.7c-1.3,1.5-2.6,3-4,4.4
			c-29.6,29.7-59.4,59.2-88.8,89.1c-4,4.1-6.1,4-10,0C301.1,100.3,272,71.2,242.9,42c-1.4-1.4-2.6-2.8-4-4.2
			C239.4,37.2,239.9,36.6,240.3,36.1z"/>
	</g>
</g>
</svg>
