<svg width="128" height="26" viewBox="0 0 128 26" fill="none" xmlns="http://www.w3.org/2000/svg">
<path d="M13.5693 2.6C13.5906 3.048 13.5906 3.38933 13.5693 3.624C13.5693 3.85867 13.5479 4.21067 13.5053 4.68C13.4626 5.128 13.4306 5.46933 13.4093 5.704H4.16125V12.392H11.7773C11.7986 12.84 11.7986 13.1813 11.7773 13.416C11.7773 13.6507 11.7559 14.0027 11.7133 14.472C11.6706 14.92 11.6386 15.2613 11.6173 15.496H4.16125V25C2.96658 25.128 1.84658 25.1387 0.80125 25.032V2.6H13.5693ZM28.415 24.648C27.6683 25.0107 26.783 25.224 25.759 25.288C25.3323 24.4773 25.0123 23.368 24.799 21.96C24.2443 23.048 23.4657 23.8907 22.463 24.488C21.4603 25.0853 20.383 25.384 19.231 25.384C17.9723 25.384 16.9483 25.0213 16.159 24.296C15.391 23.5707 15.007 22.6 15.007 21.384C15.007 19.784 15.6897 18.504 17.055 17.544C18.4417 16.584 20.3937 16.104 22.911 16.104C23.487 16.104 24.0523 16.136 24.607 16.2V15.4C24.607 13.2667 23.5083 12.2 21.311 12.2C20.7137 12.2 20.095 12.2747 19.455 12.424C18.8363 12.5733 18.271 12.776 17.759 13.032C17.247 13.2667 16.8097 13.5227 16.447 13.8C16.2123 13.032 16.0737 12.1787 16.031 11.24C16.6283 10.7067 17.4603 10.248 18.527 9.864C19.5937 9.45867 20.7777 9.256 22.079 9.256C25.8337 9.256 27.711 11.2187 27.711 15.144V19.144C27.711 21.5547 27.9457 23.3893 28.415 24.648ZM20.223 22.664C20.799 22.664 21.3643 22.5147 21.919 22.216C22.495 21.9173 23.0177 21.4267 23.487 20.744C23.9777 20.04 24.3083 19.1973 24.479 18.216C24.0523 18.1733 23.583 18.152 23.071 18.152C21.983 18.152 21.055 18.2693 20.287 18.504C19.5403 18.7387 18.9857 19.0587 18.623 19.464C18.2817 19.848 18.111 20.3067 18.111 20.84C18.111 21.416 18.303 21.864 18.687 22.184C19.0923 22.504 19.6043 22.664 20.223 22.664ZM42.3535 9.416C43.3348 9.52267 44.3375 9.59733 45.3615 9.64L41.7455 18.92L39.4735 25C38.4068 25.1707 37.3828 25.2453 36.4015 25.224L33.8735 19.016L30.2255 9.736C31.3988 9.65067 32.5295 9.53333 33.6175 9.384L38.0015 20.84L42.3535 9.416ZM56.633 9.256C58.3823 9.256 59.7903 9.93867 60.857 11.304C61.945 12.648 62.489 14.3653 62.489 16.456C62.489 19.08 61.6463 21.224 59.961 22.888C58.2757 24.552 56.0677 25.384 53.337 25.384C51.4597 25.384 49.7637 25.0427 48.249 24.36V2.6V1.48C48.5263 1.352 48.825 1.24533 49.145 1.16C49.4863 1.05333 49.881 0.957332 50.329 0.872C50.777 0.765332 51.1183 0.679998 51.353 0.615999V2.6V13.288C51.6303 12.4773 52.0143 11.7733 52.505 11.176C53.017 10.5573 53.625 10.088 54.329 9.768C55.0543 9.42667 55.8223 9.256 56.633 9.256ZM53.881 22.536C55.5023 22.536 56.8143 22.0133 57.817 20.968C58.8197 19.9013 59.321 18.5253 59.321 16.84C59.321 15.944 59.1717 15.144 58.873 14.44C58.5957 13.736 58.1903 13.1813 57.657 12.776C57.1237 12.3707 56.5157 12.168 55.833 12.168C54.617 12.168 53.561 12.7227 52.665 13.832C51.7903 14.92 51.353 16.3173 51.353 18.024V17.928V22.056C52.185 22.376 53.0277 22.536 53.881 22.536ZM72.1013 25.384C70.0533 25.384 68.3679 24.68 67.0453 23.272C65.7226 21.864 65.0613 20.0507 65.0613 17.832C65.0613 15.4213 65.8186 13.3947 67.3333 11.752C68.8479 10.088 70.7359 9.256 72.9973 9.256C75.0666 9.256 76.7519 9.96 78.0533 11.368C79.3759 12.7547 80.0373 14.568 80.0373 16.808C80.0373 19.2187 79.2799 21.256 77.7653 22.92C76.2719 24.5627 74.3839 25.384 72.1013 25.384ZM72.4853 22.44C73.8079 22.44 74.8639 21.9387 75.6533 20.936C76.4639 19.912 76.8693 18.6747 76.8693 17.224C76.8693 16.7547 76.8266 16.3067 76.7413 15.88C76.6559 15.432 76.5173 15.0267 76.3253 14.664C76.1546 14.28 75.9413 13.9387 75.6853 13.64C75.4293 13.32 75.1413 13.064 74.8213 12.872C74.5226 12.6587 74.1813 12.4987 73.7973 12.392C73.4133 12.264 73.0079 12.2 72.5813 12.2C71.2586 12.2 70.2026 12.712 69.4133 13.736C68.6239 14.7387 68.2293 15.9653 68.2293 17.416C68.2293 18.8453 68.6239 20.04 69.4133 21C70.2026 21.96 71.2266 22.44 72.4853 22.44ZM89.6325 25.384C87.5845 25.384 85.8992 24.68 84.5765 23.272C83.2538 21.864 82.5925 20.0507 82.5925 17.832C82.5925 15.4213 83.3498 13.3947 84.8645 11.752C86.3792 10.088 88.2672 9.256 90.5285 9.256C92.5978 9.256 94.2832 9.96 95.5845 11.368C96.9072 12.7547 97.5685 14.568 97.5685 16.808C97.5685 19.2187 96.8112 21.256 95.2965 22.92C93.8032 24.5627 91.9152 25.384 89.6325 25.384ZM90.0165 22.44C91.3392 22.44 92.3952 21.9387 93.1845 20.936C93.9952 19.912 94.4005 18.6747 94.4005 17.224C94.4005 16.7547 94.3578 16.3067 94.2725 15.88C94.1872 15.432 94.0485 15.0267 93.8565 14.664C93.6858 14.28 93.4725 13.9387 93.2165 13.64C92.9605 13.32 92.6725 13.064 92.3525 12.872C92.0538 12.6587 91.7125 12.4987 91.3285 12.392C90.9445 12.264 90.5392 12.2 90.1125 12.2C88.7898 12.2 87.7338 12.712 86.9445 13.736C86.1552 14.7387 85.7605 15.9653 85.7605 17.416C85.7605 18.8453 86.1552 20.04 86.9445 21C87.7338 21.96 88.7578 22.44 90.0165 22.44ZM109.404 16.296L115.516 24.872C114.172 25.0853 112.86 25.1813 111.58 25.16L106.556 17.8L104.7 18.184V20.2C104.7 22.3973 104.721 23.976 104.764 24.936C103.654 25.0853 102.62 25.128 101.66 25.064C101.617 24.232 101.596 22.6107 101.596 20.2V1.48C101.873 1.352 102.172 1.24533 102.492 1.16C102.833 1.05333 103.228 0.957332 103.676 0.872C104.124 0.765332 104.465 0.679998 104.7 0.615999V15.656L107.004 15.08L110.812 9.416C111.921 9.544 113.052 9.62933 114.204 9.672L109.404 16.296ZM121.485 25.384C119.885 25.384 118.519 25.1067 117.389 24.552C116.983 23.5067 116.834 22.3867 116.941 21.192C117.453 21.5973 118.125 21.9493 118.957 22.248C119.789 22.5467 120.674 22.696 121.613 22.696C122.509 22.696 123.223 22.5467 123.757 22.248C124.29 21.928 124.557 21.4693 124.557 20.872C124.557 20.616 124.493 20.3813 124.365 20.168C124.258 19.9547 124.13 19.7733 123.981 19.624C123.831 19.4747 123.597 19.3253 123.277 19.176C122.978 19.0053 122.722 18.8773 122.509 18.792C122.295 18.6853 121.965 18.5467 121.517 18.376C121.026 18.184 120.642 18.0347 120.365 17.928C120.109 17.8 119.767 17.608 119.341 17.352C118.914 17.0747 118.583 16.808 118.349 16.552C118.135 16.2747 117.933 15.912 117.741 15.464C117.57 14.9947 117.485 14.4827 117.485 13.928C117.485 12.4773 117.997 11.336 119.021 10.504C120.045 9.672 121.431 9.256 123.181 9.256C124.61 9.256 125.869 9.48 126.957 9.928C126.978 10.7813 126.765 11.7307 126.317 12.776C125.975 12.5413 125.495 12.328 124.877 12.136C124.279 11.9227 123.639 11.816 122.957 11.816C122.231 11.816 121.634 11.944 121.165 12.2C120.717 12.456 120.493 12.84 120.493 13.352C120.493 13.5867 120.546 13.8107 120.653 14.024C120.759 14.2373 120.887 14.4187 121.037 14.568C121.186 14.696 121.41 14.8453 121.709 15.016C122.029 15.1867 122.295 15.3253 122.509 15.432C122.722 15.5173 123.053 15.6453 123.501 15.816C123.991 16.0293 124.375 16.2 124.653 16.328C124.93 16.456 125.282 16.6587 125.709 16.936C126.157 17.2133 126.498 17.5013 126.733 17.8C126.989 18.0773 127.202 18.4507 127.373 18.92C127.565 19.368 127.661 19.8693 127.661 20.424C127.661 21.8747 127.095 23.0693 125.965 24.008C124.855 24.9253 123.362 25.384 121.485 25.384Z" fill="#FAFAFA"/>
</svg>
