<svg width="25" height="24" viewBox="0 0 25 24" fill="none" xmlns="http://www.w3.org/2000/svg">
<path d="M14.7632 22.1263C14.7632 19.0415 14.7632 15.9681 14.7632 12.8833C12.9238 12.8833 11.0957 12.8833 9.23345 12.8833C9.23345 13.009 9.23345 13.1118 9.23345 13.2261C9.23345 15.2597 9.23345 17.282 9.23345 19.3157C9.23345 19.7041 9.09634 19.9898 8.74216 20.1611C8.37656 20.3325 8.0338 20.264 7.7139 20.024C7.48539 19.8527 7.38257 19.6013 7.38257 19.3157C7.38257 16.8707 7.38257 14.4371 7.38257 11.9921C7.38257 11.3866 7.79387 11.021 8.43368 11.021C10.1589 11.021 11.8955 11.021 13.6207 11.021C14.2605 11.021 14.9118 11.021 15.5516 11.021C16.2485 11.021 16.6255 11.398 16.6255 12.095C16.6255 15.3169 16.6255 18.5388 16.6255 21.7607C16.6255 21.8863 16.6255 22.0006 16.6255 22.1377C17.5967 22.1377 18.5221 22.1605 19.459 22.1263C19.9274 22.1148 20.2702 21.7378 20.3273 21.2694C20.3387 21.178 20.3387 21.0752 20.3387 20.9838C20.3387 17.0535 20.3387 13.1232 20.3387 9.19298C20.3387 8.98733 20.2816 8.8388 20.1216 8.7017C17.6766 6.55377 15.2317 4.39441 12.7867 2.24648C12.2154 1.74377 11.7927 1.7552 11.2214 2.2579C8.05665 5.04565 4.88046 7.84481 1.70426 10.6554C1.44148 10.8839 1.1787 11.0781 0.801671 10.9753C0.401791 10.8725 0.127587 10.644 0.0247601 10.2441C-0.0666413 9.86707 0.104736 9.59286 0.37894 9.35293C1.37293 8.46177 2.37834 7.58203 3.38376 6.70229C5.61167 4.73717 7.83958 2.77204 10.0675 0.806908C11.2786 -0.267058 12.7638 -0.267058 13.9749 0.795483C17.1854 3.62892 20.3958 6.47379 23.6177 9.30723C23.8577 9.52431 24.0176 9.77566 24.0062 10.107C23.9948 10.484 23.8462 10.7811 23.4921 10.9525C23.1493 11.1124 22.818 11.0553 22.5209 10.8154C22.4295 10.7468 22.3495 10.6668 22.201 10.5526C22.201 10.7125 22.201 10.8268 22.201 10.9296C22.201 14.3 22.201 17.6819 22.201 21.0523C22.201 22.4462 21.3213 23.6001 20.0188 23.9086C19.6646 23.9886 19.299 24 18.9334 24C14.2034 24 9.47337 24 4.74335 24C3.10956 24 1.86421 22.7432 1.86421 21.1094C1.86421 18.5273 1.86421 15.9338 1.86421 13.3517C1.86421 12.6891 2.46975 12.2435 3.10956 12.4263C3.47516 12.5291 3.70366 12.8833 3.70366 13.3403C3.70366 15.0769 3.70366 16.825 3.70366 18.5616C3.70366 19.4185 3.70366 20.2754 3.70366 21.1323C3.70366 21.7378 4.10354 22.1491 4.70908 22.1491C8.01095 22.1605 11.3014 22.1605 14.6033 22.1605C14.649 22.1491 14.7061 22.1377 14.7632 22.1263Z" fill="#FAFAFA"/>
</svg>
