<?xml version="1.0" encoding="utf-8"?>
<!-- Generator: Adobe Illustrator 26.1.0, SVG Export Plug-In . SVG Version: 6.00 Build 0)  -->
<svg version="1.1" id="Слой_1" xmlns="http://www.w3.org/2000/svg" xmlns:xlink="http://www.w3.org/1999/xlink" x="0px" y="0px"
	 viewBox="0 0 45 45" style="enable-background:new 0 0 45 45;" xml:space="preserve">
<style type="text/css">
	.st0{fill:#5A5223;}
	.st1{fill:#F5E8E0;}
</style>
<path class="st0" d="M35,45H10C4.5,45,0,40.5,0,35V10C0,4.5,4.5,0,10,0h25c5.5,0,10,4.5,10,10v25C45,40.5,40.5,45,35,45z"/>
<path class="st1" d="M22.7,14c-0.2,0.8,0.1,1.4,0.6,1.9c1.1,1.1,2.4,2,3.7,2.8c1.6,1,3.2,1.9,4.7,3c1.7,1.2,3.1,2.6,3.7,4.6
	c1.2,3.7,0.5,7.1-1.8,10.2c-0.1,0.1-0.2,0.2-0.3,0.4h0.8c1,0,1.9,0.8,1.9,1.9c0,0.8,0,1.7,0,2.5c0,0.5-0.2,0.7-0.7,0.7H35H9.1
	c-0.8,0-1-0.2-1-1v-2.1c0-1.2,0.8-2,2-2c6.9,0,13.9,0,20.8,0c0.3,0,0.5-0.1,0.8-0.3c1.6-1.4,2.5-3.3,2.8-5.4c0.2-1.2,0.3-2.5,0-3.7
	c-0.4-1.8-1.6-3.2-3-4.3c-1.5-1.1-3-2-4.6-3c-1.4-0.9-2.8-1.6-4-2.8c-0.3-0.3-0.6-0.6-0.9-0.9c-1.6,2-3.9,3.1-6,4.4
	c-0.6,0.4-1.3,0.7-1.9,1.2c-1,0.7-1.9,1.4-2.8,2.3c-1.7,1.7-2.2,3.8-2,6.1c0.1,1.6,0.6,3,1.4,4.4c0.2,0.4,0.1,0.7-0.2,0.9
	c-0.3,0.2-0.7,0.1-0.9-0.2c-1.7-3.1-2.2-6.3-0.9-9.6c0.7-1.7,2-3.1,3.6-4.1c1.4-1,3-1.8,4.5-2.8c1.1-0.7,2.1-1.4,3.1-2.1
	c0.3-0.3,0.6-0.6,0.9-0.9c0.6-0.5,0.6-1.1,0.5-1.8c0-0.1-0.2-0.2-0.3-0.3c-1.8-0.7-3-1.9-3.4-3.8c-0.6-2.6,1-5.2,3.6-5.9
	c0.3-0.1,0.6-0.1,0.9,0.2c0.2,0.3,0.1,0.6-0.1,0.9c-1,1.3-0.8,3,0.3,4.2c1.1,1.1,2.8,1.2,4.1,0.3c0.3-0.2,0.5-0.3,0.9-0.1
	c0.3,0.2,0.3,0.5,0.2,0.9c-0.6,2.1-2.4,3.5-4.5,3.6C22.9,14,22.8,14,22.7,14 M9.3,40.6h25.4c0-0.1,0-0.1,0-0.1V39c0-0.8-0.2-1-1-1
	H10.2H9.9c-0.4,0-0.6,0.2-0.6,0.6C9.3,39.3,9.3,39.9,9.3,40.6 M20.1,6.2c-1,0.7-1.6,2.3-1.3,3.6c0.3,1.5,1.6,2.6,3.2,2.9
	c1.2,0.2,2.8-0.4,3.3-1.3c-1.6,0.3-2.9-0.1-4-1.2C20.3,9.1,19.9,7.8,20.1,6.2"/>
</svg>
