<svg width="17" height="17" viewBox="0 0 17 17" fill="none" xmlns="http://www.w3.org/2000/svg">
<path d="M12.418 10.3594C13.082 9.31458 13.4716 8.075 13.4716 6.74245C13.4716 3.01927 10.4568 0 6.73802 0C3.01484 0 0 3.01927 0 6.74245C0 10.4656 3.01484 13.4849 6.73359 13.4849C8.08385 13.4849 9.34115 13.0865 10.3948 12.4047L10.7003 12.1922L15.5081 17L17 15.4815L12.1966 10.6737L12.418 10.3594ZM10.5099 2.975C11.5148 3.97995 12.0682 5.31693 12.0682 6.73802C12.0682 8.15911 11.5148 9.49609 10.5099 10.501C9.50495 11.506 8.16797 12.0594 6.74687 12.0594C5.32578 12.0594 3.9888 11.506 2.98385 10.501C1.97891 9.49609 1.42552 8.15911 1.42552 6.73802C1.42552 5.31693 1.97891 3.97995 2.98385 2.975C3.9888 1.97005 5.32578 1.41667 6.74687 1.41667C8.16797 1.41667 9.50495 1.97005 10.5099 2.975Z" fill="#342E2E"/>
</svg>
